<?xml version="1.0" encoding="UTF-8" standalone="no"?><!DOCTYPE svg PUBLIC "-//W3C//DTD SVG 1.1//EN" "http://www.w3.org/Graphics/SVG/1.1/DTD/svg11.dtd"><svg width="100%" height="100%" viewBox="0 0 1182 249" version="1.1" xmlns="http://www.w3.org/2000/svg" xmlns:xlink="http://www.w3.org/1999/xlink" xml:space="preserve" xmlns:serif="http://www.serif.com/" style="fill-rule:evenodd;clip-rule:evenodd;stroke-linejoin:round;stroke-miterlimit:2;"><g><g><path d="M24.885,204.567c-6.544,-51.691 -8.093,-104.076 -0.797,-157.691c0.952,-6.791 4.934,-12.784 10.827,-16.291c5.893,-3.507 13.059,-4.151 19.483,-1.749c49.046,18.271 95.629,48.988 140.129,87.586l-6.344,-15.935l18.115,27.518c4.459,7.655 4.933,17.466 1.687,26.064c-4.412,11.688 -15.612,19.412 -28.105,19.383c-17.475,-0.026 -34.588,-0.067 -46.945,-0.097c-11.554,-0.028 -22.284,5.98 -28.299,15.844l-23.223,38.08c-6.568,10.77 -19.199,16.245 -31.549,13.674c-8.698,-1.81 -15.931,-7.336 -20.052,-14.81l-13.648,-27.891l8.721,6.315Z" style="fill:#001b65;"/><path d="M16.314,191.29c-5.163,-47.693 -5.841,-96.008 0.874,-145.353l0.004,-0.028c1.245,-8.883 6.454,-16.721 14.162,-21.309c7.708,-4.588 17.081,-5.429 25.475,-2.291c43.605,16.244 85.315,42.143 125.35,74.65c0.642,-1.094 1.587,-2.023 2.786,-2.647c3.168,-1.651 7.071,-0.638 9.035,2.346l18.115,27.518c0.07,0.106 0.137,0.214 0.201,0.324c5.481,9.409 6.174,21.461 2.185,32.029c-5.437,14.404 -19.24,23.924 -34.631,23.887c-17.477,-0.026 -34.593,-0.067 -46.952,-0.097c-9.12,-0.022 -17.589,4.72 -22.337,12.506l-23.223,38.08c-8.101,13.284 -23.681,20.037 -38.914,16.866c-10.727,-2.233 -19.649,-9.047 -24.731,-18.266c-0.055,-0.099 -0.107,-0.199 -0.157,-0.301l-13.648,-27.891c-1.405,-2.871 -0.675,-6.33 1.771,-8.389c1.332,-1.121 2.985,-1.669 4.634,-1.634Zm178.6,-67.915c-1.76,0.097 -3.543,-0.473 -4.949,-1.693c-43.833,-38.02 -89.687,-68.324 -137.997,-86.321l-0.008,-0.003c-4.445,-1.662 -9.404,-1.217 -13.482,1.211c-4.075,2.425 -6.83,6.568 -7.491,11.263c-7.209,52.992 -5.66,104.769 0.808,155.86c0.29,2.293 -0.576,4.547 -2.253,6.054l6.452,13.184c3.172,5.655 8.68,9.83 15.29,11.206c9.467,1.97 19.15,-2.227 24.185,-10.482l23.224,-38.08c7.283,-11.942 20.273,-19.215 34.261,-19.182c12.356,0.029 29.467,0.07 46.939,0.097l0.006,0c9.59,0.023 18.187,-5.906 21.573,-14.878c2.479,-6.569 2.252,-14.063 -1.102,-19.948l-5.456,-8.288Z" style="fill:#001b65;"/><path d="M12.15,28.923c1.001,-7.425 5.338,-13.986 11.778,-17.815c6.439,-3.829 14.275,-4.507 21.277,-1.841c48.09,18.336 93.807,48.611 137.515,86.493c10.327,8.878 14.03,23.249 9.281,36.013c-4.75,12.763 -16.947,21.217 -30.565,21.185c-14.305,-0.023 -27.969,-0.055 -38.51,-0.08c-12.541,-0.03 -24.188,6.491 -30.718,17.198c-5.139,8.426 -11.708,19.197 -18.658,30.594c-7.152,11.728 -20.926,17.667 -34.364,14.818c-13.438,-2.849 -23.616,-13.867 -25.394,-27.488c-6.861,-52.148 -8.728,-104.99 -1.643,-159.076Z" style="fill:#f1f1f2;"/><path d="M4.559,27.899c1.313,-9.742 7.005,-18.351 15.454,-23.376c8.449,-5.024 18.731,-5.914 27.918,-2.415l0.003,0.001c48.876,18.636 95.373,49.355 139.796,87.856c12.746,10.97 17.315,28.717 11.45,44.479c-5.868,15.769 -20.937,26.213 -37.757,26.173c-14.307,-0.023 -27.973,-0.055 -38.516,-0.081c-9.864,-0.024 -19.024,5.105 -24.16,13.526l-18.658,30.594c-8.844,14.502 -25.875,21.847 -42.492,18.323c-16.617,-3.523 -29.203,-17.147 -31.399,-33.982c-6.947,-52.801 -8.818,-106.306 -1.643,-161.07l0.004,-0.028Zm15.184,2.036c-6.994,53.402 -5.13,105.576 1.645,157.064l0.001,0.008c1.357,10.399 9.127,18.811 19.387,20.986c10.259,2.175 20.775,-2.359 26.235,-11.313l18.658,-30.594c7.924,-12.993 22.057,-20.906 37.276,-20.87c10.539,0.025 24.201,0.058 38.504,0.08l0.006,0c10.412,0.025 19.737,-6.438 23.368,-16.196c3.631,-9.758 0.8,-20.745 -7.095,-27.533l-0.023,-0.02c-42.991,-37.26 -87.926,-67.088 -135.225,-85.124c-4.816,-1.834 -10.206,-1.367 -14.635,1.266c-4.426,2.632 -7.409,7.141 -8.1,12.244Z" style="fill:#001b65;"/></g><g><path d="M314.413,57.113c14.938,-11.737 33.945,-17.606 57.019,-17.606c22.674,0 42.181,6.235 58.52,18.706c16.339,12.471 24.508,31.644 24.508,57.519c0,13.204 -2.034,24.475 -6.102,33.811c-4.068,9.336 -12.204,18.706 -24.408,28.109c-12.204,9.403 -29.71,14.105 -52.518,14.105c-22.541,0 -39.847,-4.535 -51.917,-13.605c-12.071,-9.07 -20.24,-18.406 -24.508,-28.009c-4.268,-9.603 -6.402,-21.074 -6.402,-34.411c0,-13.204 2.034,-24.575 6.102,-34.111c4.068,-9.537 10.637,-17.706 19.707,-24.508Zm19.607,58.62c0,17.739 3.334,31.711 10.003,41.914c6.669,10.203 15.805,15.305 27.409,15.305c11.337,0 20.44,-5.135 27.309,-15.405c6.869,-10.27 10.303,-24.208 10.303,-41.814c0,-17.473 -3.401,-31.41 -10.203,-41.814c-6.802,-10.403 -15.939,-15.605 -27.409,-15.605c-11.604,0 -20.74,5.102 -27.409,15.305c-6.669,10.203 -10.003,24.241 -10.003,42.114Z" style="fill:#001b65;"/><path d="M460.062,54.139c-0,-2.554 1.015,-5.003 2.82,-6.809c1.806,-1.806 4.255,-2.82 6.809,-2.82c16.969,0 52.002,0 68.97,0c2.554,-0 5.003,1.015 6.809,2.82c1.806,1.806 2.82,4.255 2.82,6.809c0,0.049 0,0.098 0,0.147c0,5.318 -4.311,9.63 -9.63,9.63c-1.928,0 -3.375,0 -3.375,0c-3.601,0 -6.035,0.634 -7.302,1.901c-1.267,1.267 -1.901,3.901 -1.901,7.903l0,61.821c0,3.468 0.067,6.602 0.2,9.403c0.133,2.801 0.467,5.602 1,8.403c0.534,2.801 1.734,5.735 3.601,8.803c4.668,6.802 13.404,10.203 26.209,10.203c13.338,0 21.574,-2.568 24.708,-7.703c3.134,-5.135 5.102,-9.603 5.902,-13.404c0.8,-3.801 1.2,-8.503 1.2,-14.105l0,-63.421c0,-4.268 -0.433,-6.969 -1.3,-8.103c-0.867,-1.134 -2.834,-1.701 -5.902,-1.701c0,0 -2.349,0 -5.175,0c-5.318,-0 -9.63,-4.311 -9.63,-9.63c0,-0.049 0,-0.098 0,-0.147c-0,-2.554 1.015,-5.003 2.82,-6.809c1.806,-1.806 4.255,-2.82 6.809,-2.82c13.532,-0 38.032,-0 51.564,-0c2.554,-0 5.003,1.015 6.809,2.82c1.806,1.806 2.82,4.255 2.82,6.809c-0,0.049 -0,0.098 -0,0.147c0,2.554 -1.015,5.003 -2.82,6.809c-1.806,1.806 -4.255,2.82 -6.809,2.82c-2.633,-0 -4.775,-0 -4.775,-0c-3.334,0 -5.602,0.6 -6.802,1.801c-0.534,0.667 -0.934,1.601 -1.2,2.801c-0.267,1.2 -0.4,2.934 -0.4,5.202l0,62.021c0,9.87 -0.8,17.639 -2.401,23.308c-1.601,5.669 -6.069,12.638 -13.404,20.907c-7.336,8.269 -23.141,12.404 -47.416,12.404c-20.407,0 -35.712,-2.734 -45.915,-8.203c-10.203,-5.468 -16.572,-11.304 -19.106,-17.506c-2.534,-6.202 -3.801,-16.906 -3.801,-32.111l0,-60.82c0,-4.001 -0.567,-6.636 -1.701,-7.903c-1.134,-1.267 -3.434,-1.901 -6.902,-1.901c0,0 -2.041,-0 -4.575,-0c-2.554,-0 -5.003,-1.015 -6.809,-2.82c-1.806,-1.806 -2.82,-4.255 -2.82,-6.809c-0,-0.049 -0,-0.098 -0,-0.147Z" style="fill:#001b65;"/><path d="M656.127,54.208c0,-5.357 4.342,-9.699 9.699,-9.699c17.937,-0 56.095,-0 74.033,-0c5.357,0 9.699,4.343 9.699,9.699c-0,0.003 -0,0.005 -0,0.008c-0,2.572 -1.022,5.039 -2.841,6.858c-1.819,1.819 -4.286,2.841 -6.858,2.841c-2.892,0 -5.306,0 -5.306,0c-3.868,0 -6.502,0.567 -7.903,1.701c-1.4,1.134 -2.101,3.835 -2.101,8.103l0,85.829c0,4.668 0.467,7.536 1.4,8.603c1.2,0.934 3.868,1.4 8.003,1.4c0,0 2.785,0 6.002,0c2.547,-0 4.99,1.012 6.791,2.813c1.801,1.801 2.813,4.244 2.813,6.791c-0,0.003 -0,0.005 -0,0.008c0,2.545 -1.011,4.985 -2.81,6.785c-1.799,1.799 -4.24,2.81 -6.785,2.81c-17.897,-0 -56.171,-0 -74.056,-0c-5.291,-0 -9.58,-4.289 -9.58,-9.58c0,-0.015 0,-0.031 0,-0.046c-0,-2.541 1.009,-4.977 2.806,-6.774c1.797,-1.797 4.233,-2.806 6.774,-2.806c2.752,0 5.025,0 5.025,0c4.401,0 7.236,-0.634 8.503,-1.901c1.267,-1.267 1.901,-3.968 1.901,-8.103l0,-85.629c0,-4.401 -0.534,-7.136 -1.601,-8.203c-0.8,-1.2 -3.468,-1.801 -8.003,-1.801c0,0 -2.73,0 -5.906,-0c-5.357,-0 -9.699,-4.343 -9.699,-9.699c0,-0.003 0,-0.005 0,-0.008Z" style="fill:#001b65;"/><path d="M801.376,172.752c8.936,0 15.405,-2.101 19.406,-6.302c4.001,-4.201 6.002,-11.104 6.002,-20.707l0,-72.024c0,-4.001 -0.834,-6.636 -2.501,-7.903c-1.667,-1.267 -5.368,-1.901 -11.104,-1.901c0,0 -2.345,0 -5.168,0c-5.322,-0 -9.637,-4.315 -9.637,-9.637c0,-0.044 0,-0.088 0,-0.132c-0,-5.322 4.315,-9.637 9.637,-9.637c18.234,-0 57.576,-0 75.7,-0c5.244,0 9.495,4.251 9.495,9.495c-0,0.139 -0,0.277 -0,0.416c-0,5.244 -4.251,9.495 -9.495,9.495c-2.886,0 -5.31,0 -5.31,0c-3.468,0 -5.468,0.267 -6.002,0.8c-0.534,0.534 -1.134,1.867 -1.801,4.001l-0.6,5.002l0,69.823c0,8.536 -0.767,15.305 -2.301,20.307c-1.534,5.002 -4.435,9.803 -8.703,14.405c-4.268,4.602 -10.303,8.269 -18.106,11.004c-7.803,2.734 -16.706,4.101 -26.709,4.101c-16.939,0 -30.31,-3.434 -40.113,-10.303c-9.803,-6.869 -14.705,-16.172 -14.705,-27.909c0,-7.336 2.334,-13.371 7.002,-18.106c4.668,-4.735 10.537,-7.102 17.606,-7.102c5.602,0 10.303,1.734 14.105,5.202c3.801,3.468 5.702,7.803 5.702,13.004c0,4.802 -1.667,8.87 -5.002,12.204c-3.334,3.334 -7.536,5.002 -12.604,5.002l-4.401,-0.2c3.468,3.068 6.569,5.102 9.303,6.102c2.734,1 6.169,1.501 10.303,1.501Z" style="fill:#001b65;"/><path d="M913.013,54.017c-0,-5.251 4.257,-9.508 9.508,-9.508c17.919,-0 56.495,-0 74.415,-0c5.251,0 9.508,4.257 9.508,9.508c-0,0.13 -0,0.26 -0,0.39c0,5.251 -4.257,9.508 -9.508,9.508c-2.975,0 -5.497,0 -5.497,0c-3.868,0 -6.502,0.567 -7.903,1.701c-1.4,1.134 -2.101,3.835 -2.101,8.103l0,85.829c0,4.668 0.467,7.536 1.4,8.603c1.2,0.934 3.868,1.4 8.003,1.4c0,0 2.785,0 6.002,0c2.547,-0 4.99,1.012 6.791,2.813c1.801,1.801 2.813,4.244 2.813,6.791c-0,0.003 -0,0.005 -0,0.008c0,2.545 -1.011,4.985 -2.81,6.785c-1.799,1.799 -4.24,2.81 -6.785,2.81c-17.892,-0 -56.149,-0 -74.041,-0c-2.545,0 -4.985,-1.011 -6.785,-2.81c-1.799,-1.799 -2.81,-4.24 -2.81,-6.785c-0,-0.003 -0,-0.005 -0,-0.008c-0,-2.547 1.012,-4.99 2.813,-6.791c1.801,-1.801 4.244,-2.813 6.791,-2.813c2.742,-0 5.002,-0 5.002,-0c4.401,0 7.236,-0.634 8.503,-1.901c1.267,-1.267 1.901,-3.968 1.901,-8.103l0,-85.629c0,-4.401 -0.534,-7.136 -1.601,-8.203c-0.8,-1.2 -3.468,-1.801 -8.003,-1.801c0,0 -2.84,0 -6.097,0c-5.251,-0 -9.508,-4.257 -9.508,-9.508c0,-0.13 0,-0.26 0,-0.39Z" style="fill:#001b65;"/><path d="M1021.449,54.135c0,-5.317 4.31,-9.626 9.626,-9.626c28.453,-0 111.947,-0 140.4,-0c5.317,0 9.626,4.31 9.626,9.626c0,10 0,25.598 0,35.905c-0,2.781 -1.105,5.449 -3.072,7.416c-1.967,1.967 -4.634,3.072 -7.416,3.072c-1.547,0 -3.094,0 -4.508,0c-3.383,-0 -6.187,-2.623 -6.412,-5.999c-0,-0.002 -0,-0.003 -0,-0.003c0,-2.001 -0.067,-3.535 -0.2,-4.602c-0.133,-1.067 -0.6,-2.734 -1.4,-5.002c-0.934,-3.601 -2.768,-7.936 -5.502,-13.004c-2.734,-5.068 -9.503,-7.603 -20.307,-7.603l-0.008,0c-2.333,-0 -4.57,0.927 -6.219,2.576c-1.649,1.649 -2.576,3.886 -2.576,6.219c-0,23.581 -0,86.437 -0,86.437c0,4.535 0.6,7.336 1.801,8.403c1.2,1.067 4.001,1.601 8.403,1.601c0,0 2.26,0 5.002,0c2.547,-0 4.99,1.012 6.791,2.813c1.801,1.801 2.813,4.244 2.813,6.791c-0,0.003 -0,0.005 -0,0.008c0,2.545 -1.011,4.985 -2.81,6.785c-1.799,1.799 -4.24,2.81 -6.785,2.81c-18.255,-0 -57.787,-0 -76.041,-0c-2.545,-0 -4.985,-1.011 -6.785,-2.81c-1.799,-1.799 -2.81,-4.24 -2.81,-6.785c-0,-0.003 -0,-0.005 -0,-0.008c-0,-5.304 4.299,-9.603 9.603,-9.603c3.855,-0 12.004,-0 12.004,-0c0.8,0 1.767,-0.367 2.901,-1.1c1.134,-0.734 1.901,-2.034 2.301,-3.901l0.4,-4.802l0,-86.637c-0,-4.857 -3.938,-8.795 -8.795,-8.795c-0.852,0 -1.408,0 -1.408,0c-8.269,0 -14.905,2.768 -19.907,8.303c-5.002,5.535 -7.503,13.104 -7.503,22.708l0,0c-0,2.983 -2.418,5.402 -5.402,5.402c-1.629,-0 -3.476,-0 -5.318,-0c-2.781,-0 -5.449,-1.105 -7.416,-3.072c-1.967,-1.967 -3.072,-4.634 -3.072,-7.416c-0,-10.356 -0,-26.059 -0,-36.105Z" style="fill:#001b65;"/></g></g></svg>