<svg xmlns="http://www.w3.org/2000/svg" viewBox="0 0 1200 560" preserveAspectRatio="xMidYMid slice"><path d="M726.4,246.3L719.5,240.5L714.4,233.1L714.3,224.1L719.7,216.9L726.8,211.3L734.5,206.7L742.6,202.8L751.0,199.6L759.7,197.5L768.7,196.9L777.6,198.5L785.4,203.0L791.5,209.6L796.6,217.0L801.6,224.5L807.8,231.0L815.6,235.5L824.3,237.8L833.2,239.2L842.2,240.1L851.1,240.5L860.1,240.9L869.1,241.3L878.1,242.0L887.1,242.9L896.0,244.0L904.9,245.4L913.7,247.0L922.5,248.9L931.3,251.0L939.9,253.5L948.5,256.2L957.0,259.2L965.5,262.3L973.9,265.4L982.3,268.6L990.7,271.9L999.0,275.3L1007.3,278.8L1015.5,282.4L1023.7,286.2L1031.8,290.1L1039.9,294.0L1048.0,298.0L1056.1,301.9L1064.3,305.6L1072.6,309.2L1080.9,312.5L1089.4,315.6L1097.9,318.4L1106.5,321.0L1115.2,323.4L1124.0,325.6L1132.8,327.4L1141.7,328.7L1150.6,329.5L1159.6,329.3L1168.6,328.1L1177.4,326.5L1186.4,325.6L1195.4,325.2L1204.4,325.1L1213.4,325.2" fill="none" stroke="#6366f1" stroke-opacity="0.50" stroke-width="1.1"/><path d="M560.2,186.3L568.9,188.6L577.7,190.3L586.7,191.3L595.6,192.0L604.6,192.5L613.6,193.0L622.6,193.4L631.6,193.5L640.6,193.3L649.6,192.8L658.5,191.8L667.4,190.3L676.2,188.4L684.9,186.1L693.5,183.4L702.0,180.4L710.3,177.1L718.6,173.5L726.8,169.7L734.8,165.7L742.8,161.6L750.8,157.4L758.8,153.2L766.6,148.8L774.3,144.2L781.1,138.3L777.7,130.0L774.4,121.5L771.3,113.1L768.3,104.6L765.5,96.1L763.1,87.4L761.2,78.6L760.1,69.7L759.8,60.7L760.5,51.7L762.5,42.9L765.8,34.5L770.3,26.8L776.3,20.0L784.5,16.4L781.0,24.7L772.3,26.7L778.0,19.8L786.9,18.2L781.7,25.6L772.9,27.6L778.2,20.3L787.0,18.6L781.7,25.8L772.9,27.5L778.2,20.2L787.1,18.6L781.7,25.8L772.9,27.5L778.2,20.2L787.1,18.6L781.7,25.8L772.9,27.5L778.2,20.2L787.1,18.6L781.7,25.8L772.9,27.5L778.2,20.2" fill="none" stroke="rgba(255,255,255,1)" stroke-opacity="0.08" stroke-width="0.7"/><path d="M295.9,218.5L293.4,227.2L287.8,234.2L279.8,238.4L271.1,240.5L262.1,241.6L253.2,242.1L244.2,242.3L235.2,242.3L226.2,242.3L217.2,242.4L208.2,242.8L199.2,243.8L190.9,247.2L192.9,255.9L183.9,254.9L188.0,262.9L179.0,263.0L183.0,271.1L175.0,275.1L179.0,283.2L176.7,291.9L177.8,300.8L175.0,309.4L173.8,318.3L170.3,326.6L166.5,334.7L161.9,342.5L156.8,349.9L151.4,357.1L145.8,364.2L140.2,371.2L134.5,378.2L129.1,385.3L124.0,392.8L119.4,400.5L115.5,408.6L112.5,417.1L110.8,425.9L110.4,434.9L111.4,443.9L113.3,452.6L116.0,461.2L119.1,469.7L122.2,478.2L125.1,486.7L127.8,495.2L130.1,504.0L131.8,512.8L132.8,521.7L133.2,530.7L133.0,539.7L132.3,548.7L131.3,557.6L130.2,566.6L129.1,575.5" fill="none" stroke="rgba(255,255,255,1)" stroke-opacity="0.10" stroke-width="0.7"/><path d="M693.2,499.1L691.4,490.3L689.0,481.6L686.5,473.0L684.1,464.3L682.1,455.5L680.2,446.7L678.2,437.9L676.1,429.2L673.7,420.5L671.2,411.9L668.7,403.2L666.4,394.5L664.6,385.7L663.4,376.8L662.8,367.8L662.4,358.8L660.9,349.9L657.5,341.6L650.9,335.5L648.1,344.1L657.1,343.6L652.8,335.7L645.3,340.7L653.9,343.5L657.2,335.1L648.2,334.8L650.3,343.6L659.1,341.5L651.9,336.1L646.4,343.2L655.3,344.0L654.9,335.0L646.0,336.8L652.5,343.1L659.5,337.5L650.9,334.8L647.2,343.0L656.2,343.6L653.2,335.1L645.3,339.3L653.4,343.2L658.0,335.5L649.1,334.5L649.2,343.5L658.2,342.6L652.0,336.0L646.2,342.9L655.1,343.9L655.2,334.9L646.3,336.4L652.3,343.2L659.6,338.0L651.2,335.0L647.0,343.0L655.9,343.7L653.6,335.0L645.4,338.6L653.2,343.1L658.5,335.9L649.6,334.5L648.6,343.4L657.6,343.0L652.2,335.8L645.9,342.2" fill="none" stroke="rgba(255,255,255,1)" stroke-opacity="0.10" stroke-width="0.7"/><path d="M843.3,280.5L850.4,275.1L857.7,269.8L865.3,264.9L873.2,260.7L881.6,257.5L890.4,255.4L899.4,254.5L908.4,254.6L917.3,255.5L926.2,257.0L935.0,259.0L943.6,261.5L952.2,264.3L960.6,267.4L969.0,270.5L977.5,273.7L985.9,277.0L994.2,280.3L1002.5,283.8L1010.8,287.3L1019.0,291.0L1027.2,294.7L1035.4,298.5L1043.6,302.2L1051.8,305.8L1060.1,309.3L1068.5,312.6L1077.0,315.6L1085.5,318.5L1094.1,321.0L1102.8,323.4L1111.6,325.5L1120.4,327.4L1129.2,328.9L1138.2,330.0L1147.2,330.5L1156.2,330.1L1165.1,328.9L1173.9,327.1L1182.8,325.9L1191.8,325.4L1200.8,325.0L1209.8,325.3L1218.8,324.8" fill="none" stroke="rgba(255,255,255,1)" stroke-opacity="0.09" stroke-width="0.7"/><path d="M1023.2,81.0L1031.9,83.3L1040.7,81.4L1048.7,77.3L1056.4,72.6L1063.9,67.6L1071.5,62.8L1079.3,58.3L1087.3,54.3L1095.7,51.0L1104.4,48.5L1113.2,47.1L1122.2,46.8L1131.2,48.0L1139.7,50.8L1147.5,55.4L1153.7,61.9L1157.7,70.0L1159.3,78.8L1159.3,87.8L1158.4,96.8L1157.7,105.7L1157.8,114.7L1159.4,123.6L1162.5,132.0L1166.9,139.9L1172.4,147.0L1178.7,153.4L1185.8,158.9L1193.5,163.7L1201.5,167.8L1209.8,171.4L1218.1,174.6" fill="none" stroke="rgba(255,255,255,1)" stroke-opacity="0.04" stroke-width="0.7"/><path d="M986.1,143.5L992.4,150.0L999.5,155.5L1007.1,160.3L1014.9,164.8L1022.7,169.3L1030.4,174.0L1037.9,179.0L1045.1,184.4L1052.0,190.1L1058.7,196.1L1065.3,202.2L1071.9,208.4L1078.4,214.6L1085.1,220.6L1091.9,226.5L1098.9,232.2L1106.0,237.7L1113.3,243.0L1120.6,248.3L1127.9,253.4L1135.3,258.7L1142.5,264.0L1149.6,269.5L1156.6,275.2L1163.4,281.1L1170.1,287.2L1176.6,293.3L1183.2,299.5L1189.7,305.7L1196.3,311.8L1203.0,317.8L1210.1,323.3L1218.5,326.6" fill="none" stroke="rgba(255,255,255,1)" stroke-opacity="0.11" stroke-width="0.7"/><path d="M896.4,131.9L892.8,140.2L890.4,148.8L889.6,157.8L890.4,166.8L892.7,175.5L896.1,183.8L900.4,191.7L905.5,199.2L911.6,205.8L918.6,211.3L926.4,215.9L934.6,219.6L943.0,222.8L951.6,225.7L960.1,228.5L968.7,231.3L977.2,234.2L985.7,237.2L994.1,240.4L1002.4,243.8L1010.7,247.4L1018.8,251.2L1026.9,255.2L1034.9,259.4L1042.8,263.6L1050.7,268.0L1058.5,272.4L1066.3,276.8L1074.2,281.3L1082.0,285.8L1089.8,290.2L1097.6,294.6L1105.5,298.9L1113.5,303.2L1121.5,307.3L1129.5,311.3L1137.6,315.2L1145.9,318.8L1154.2,322.1L1162.8,324.9L1171.7,326.6L1180.7,326.4L1189.6,325.2L1198.6,325.5L1207.5,324.3L1216.2,326.2" fill="none" stroke="rgba(255,255,255,1)" stroke-opacity="0.09" stroke-width="0.7"/><path d="M726.9,24.6L733.6,18.6L740.7,13.0L748.0,7.8L755.6,2.9L763.4,-1.6L771.5,-5.4L780.3,-7.3L785.7,-0.1L784.1,8.8L783.2,17.7L780.3,26.2L773.3,20.6L780.8,15.7L784.2,24.0L777.0,29.5L778.6,20.6L787.5,19.5L781.8,26.4L772.9,27.5L778.2,20.3L787.1,18.7L781.7,25.9L772.9,27.5L778.2,20.3L787.1,18.6L781.7,25.8L772.9,27.5L778.2,20.2L787.1,18.6L781.7,25.8L772.9,27.5L778.2,20.2L787.1,18.6L781.7,25.8L772.9,27.5L778.2,20.2L787.1,18.6L781.7,25.8L772.9,27.5L778.2,20.2L787.1,18.6L781.7,25.8L772.9,27.5L778.2,20.2L787.1,18.6L781.7,25.8L772.9,27.5L778.2,20.2L787.1,18.6L781.7,25.8L772.9,27.5L778.2,20.2L787.1,18.6L781.7,25.8L772.9,27.5L778.2,20.2L787.1,18.6L781.7,25.8L772.9,27.5L778.2,20.2L787.1,18.6L781.7,25.8L772.9,27.5L778.2,20.2" fill="none" stroke="rgba(255,255,255,1)" stroke-opacity="0.12" stroke-width="0.7"/><path d="M956.8,196.7L965.4,199.2L974.0,201.8L982.6,204.5L991.1,207.4L999.5,210.7L1007.8,214.2L1015.9,218.2L1023.8,222.4L1031.6,226.9L1039.2,231.7L1046.8,236.6L1054.3,241.5L1061.8,246.5L1069.3,251.5L1076.8,256.5L1084.4,261.3L1092.0,266.0L1099.7,270.7L1107.4,275.4L1115.0,280.2L1122.5,285.2L1130.0,290.2L1137.4,295.4L1144.7,300.6L1152.1,305.7L1159.5,310.8L1167.0,315.8L1174.7,320.5L1182.8,324.5L1191.6,326.2L1200.1,323.2L1208.4,326.6L1215.5,321.1" fill="none" stroke="rgba(255,255,255,1)" stroke-opacity="0.04" stroke-width="0.7"/><path d="M622.7,313.3L622.7,322.3L625.6,330.8L631.6,337.5L639.4,342.1L648.0,344.6L656.9,343.9L653.2,335.7L645.2,339.8L653.5,343.3L658.0,335.5L649.0,334.6L649.3,343.6L658.3,342.5L652.0,336.0L646.2,342.9L655.2,344.0L655.1,335.0L646.3,336.5L652.3,343.2L659.6,337.9L651.1,335.0L647.0,343.0L656.0,343.7L653.5,335.0L645.3,338.8L653.2,343.1L658.4,335.8L649.5,334.5L648.7,343.4L657.7,342.9L652.1,335.9L645.9,342.4L654.8,343.8L655.6,334.9L646.7,336.0L651.9,343.3L659.7,338.8L651.5,335.3L646.7,342.9L655.6,343.8L654.1,334.9L645.6,337.8L652.9,343.1L659.0,336.5L650.2,334.5L647.9,343.3L656.9,343.3L652.5,335.5L645.5,341.1L654.1,343.6L656.7,334.9L647.7,335.1L650.9,343.5L659.4,340.8L651.9,335.9L646.4,343.1L655.3,344.0L654.8,335.0L646.0,336.9L652.5,343.1L659.4,337.4L650.8,334.8L647.3,343.0L656.3,343.6" fill="none" stroke="rgba(255,255,255,1)" stroke-opacity="0.10" stroke-width="0.7"/><path d="M314.8,144.8L316.3,153.7L316.7,162.7L316.1,171.6L315.0,180.6L313.7,189.5L312.6,198.4L311.1,207.3L308.8,216.0L305.0,224.2L299.3,231.1L291.9,236.1L283.4,239.2L274.6,241.0L265.6,241.9L256.6,242.3L247.6,242.4L238.6,242.4L229.6,242.3L220.6,242.4L211.6,242.6L202.7,243.3L193.9,245.3L191.0,253.8L182.0,254.1L188.7,260.1L179.7,260.2L184.6,267.7L176.0,270.2L180.1,278.2L175.6,285.9L178.7,294.4L175.7,302.9L175.8,311.9L172.5,320.2L169.5,328.7L165.4,336.7L160.6,344.4L155.5,351.8L150.0,358.9L144.4,365.9L138.7,372.9L133.1,380.0L127.8,387.2L122.8,394.7L118.3,402.5L114.6,410.7L111.9,419.3L110.6,428.2L110.5,437.2L111.8,446.1L114.0,454.8L116.8,463.4L119.9,471.8L123.0,480.3L125.9,488.8L128.4,497.4L130.6,506.2L132.1,515.1L133.0,524.0L133.2,533.0L132.9,542.0L132.1,551.0L131.0,559.9L129.9,568.8" fill="none" stroke="rgba(255,255,255,1)" stroke-opacity="0.10" stroke-width="0.7"/><path d="M348.3,217.6L341.7,223.8L334.4,229.0L326.5,233.3L318.2,236.7L309.5,239.2L300.7,240.9L291.7,242.1L282.8,242.8L273.8,243.1L264.8,243.2L255.8,243.0L246.8,242.8L237.8,242.6L228.8,242.5L219.8,242.5L210.8,242.7L201.8,243.4L193.1,245.6L192.0,254.6L183.0,254.1L189.1,260.7L180.1,260.5L184.5,268.3L175.8,270.9L180.0,278.9L175.7,286.8L178.6,295.4L175.6,303.8L175.5,312.8L172.2,321.2L169.0,329.6L164.9,337.6L160.1,345.2L154.9,352.6L149.4,359.7L143.8,366.7L138.1,373.7L132.5,380.8L127.2,388.0L122.2,395.5L117.8,403.4L114.3,411.6L111.7,420.3L110.5,429.2L110.6,438.2L112.0,447.1L114.3,455.8L117.1,464.3L120.2,472.8L123.3,481.2L126.2,489.8L128.7,498.4L130.8,507.2L132.2,516.0L133.1,525.0L133.2,534.0L132.8,543.0L132.0,552.0L130.9,560.9L129.8,569.8L128.7,578.8" fill="none" stroke="rgba(255,255,255,1)" stroke-opacity="0.12" stroke-width="0.7"/><path d="M550.9,247.9L549.9,256.9L547.1,265.4L543.4,273.6L539.0,281.5L534.2,289.1L529.4,296.7L524.9,304.5L520.9,312.6L518.6,321.3L519.5,330.2L524.9,337.4L532.5,342.2L540.8,345.7L549.4,348.4L558.1,350.6L567.0,352.4L575.8,353.8L584.8,355.1L593.7,356.1L602.6,357.1L611.6,357.9L620.6,358.5L629.6,358.9L638.6,358.7L647.5,357.5L655.9,354.2L660.1,346.3L655.3,338.7L646.8,335.9L651.9,343.3L659.7,338.8L651.5,335.3L646.7,342.9L655.6,343.8L654.1,334.9L645.6,337.8L652.9,343.1L659.0,336.5L650.2,334.5L647.9,343.3L656.9,343.3L652.5,335.5L645.5,341.1L654.1,343.5L656.7,334.9L647.7,335.1L650.8,343.5L659.4,340.8L651.9,335.9L646.4,343.1L655.3,344.0L654.8,335.0L646.0,336.9L652.5,343.1L659.4,337.4L650.8,334.8L647.3,343.0L656.3,343.6L653.2,335.1L645.3,339.5L653.5,343.2L657.9,335.4L649.0,334.6L649.4,343.5" fill="none" stroke="rgba(255,255,255,1)" stroke-opacity="0.10" stroke-width="0.7"/><path d="M589.9,370.9L598.9,371.0L607.9,371.1L616.9,371.1L625.9,370.9L634.9,370.3L643.8,369.0L652.4,366.2L659.4,360.6L661.2,351.8L658.4,343.2L652.6,336.3L645.3,341.6L654.1,343.7L657.0,335.2L648.1,335.0L650.6,343.6L659.3,341.2L651.9,336.0L646.4,343.1L655.3,344.0L654.8,335.0L646.0,336.9L652.5,343.1L659.5,337.4L650.9,334.8L647.2,343.0L656.2,343.6L653.2,335.1L645.3,339.4L653.4,343.2L658.0,335.5L649.1,334.5L649.3,343.5L658.2,342.5L652.0,336.0L646.2,342.9L655.1,344.0L655.1,335.0L646.3,336.5L652.3,343.2L659.6,338.0L651.1,335.0L647.0,343.0L656.0,343.7L653.6,335.0L645.3,338.7L653.2,343.1L658.5,335.9L649.6,334.5L648.7,343.4L657.6,343.0L652.1,335.8L645.9,342.3L654.8,343.8L655.7,334.9L646.7,335.9L651.9,343.3L659.7,338.9L651.5,335.3L646.7,342.9L655.6,343.8L654.1,334.9L645.6,337.7L652.8,343.1" fill="none" stroke="rgba(255,255,255,1)" stroke-opacity="0.04" stroke-width="0.7"/><path d="M1007.8,391.2L1005.6,382.4L1001.6,374.4L996.5,367.0L990.6,360.2L984.2,353.8L977.7,347.6L971.1,341.5L964.7,335.1L959.4,327.9L961.0,319.1L970.0,319.1L979.0,319.3L988.0,319.8L997.0,320.5L1005.9,321.5L1014.8,322.6L1023.7,323.9L1032.6,325.3L1041.5,326.7L1050.4,328.2L1059.3,329.6L1068.2,331.0L1077.1,332.4L1086.0,333.6L1094.9,334.7L1103.9,335.7L1112.8,336.4L1121.8,336.7L1130.8,336.5L1139.8,335.7L1148.6,334.1L1157.3,331.6L1165.9,329.0L1174.7,326.9L1183.6,325.8L1192.6,325.3L1201.6,325.1L1210.6,325.2L1219.6,325.0" fill="none" stroke="rgba(255,255,255,1)" stroke-opacity="0.07" stroke-width="0.7"/><path d="M551.4,414.9L560.4,415.3L569.4,416.1L578.4,417.1L587.3,418.3L596.1,419.8L605.0,421.4L613.8,423.1L622.7,424.7L631.6,425.9L640.6,426.6L649.6,426.0L658.0,422.9L663.9,416.1L665.8,407.3L665.6,398.3L664.7,389.3L663.7,380.4L663.0,371.4L662.7,362.4L661.7,353.5L659.2,344.8L654.1,337.4L645.1,338.0L652.6,343.0L659.3,337.1L650.7,334.7L647.4,343.1L656.4,343.5L653.0,335.2L645.3,339.9L653.6,343.3L657.7,335.3L648.7,334.6L649.7,343.6L658.6,342.1L651.9,336.1L646.3,343.1L655.3,344.0L654.9,335.0L646.1,336.7L652.4,343.1L659.5,337.6L651.0,334.9L647.2,343.0L656.1,343.6L653.3,335.1L645.3,339.1L653.3,343.2L658.2,335.6L649.2,334.5L649.0,343.5L658.0,342.7L652.0,336.0L646.1,342.7L655.0,343.9L655.3,334.9L646.4,336.3L652.2,343.2L659.7,338.2L651.3,335.1L646.9,342.9L655.8,343.7L653.7,335.0L645.4,338.4" fill="none" stroke="rgba(255,255,255,1)" stroke-opacity="0.05" stroke-width="0.7"/><path d="M582.4,447.5L591.0,450.0L599.5,452.8L608.0,455.8L616.5,458.8L625.1,461.6L633.8,463.9L642.7,465.3L651.7,465.2L660.1,462.1L666.1,455.4L669.2,446.9L670.6,438.0L670.8,429.0L670.2,420.0L669.0,411.1L667.4,402.3L665.7,393.4L664.3,384.5L663.3,375.6L662.8,366.6L662.3,357.6L660.6,348.8L656.9,340.6L649.6,335.3L649.9,344.3L658.7,342.3L652.1,336.2L646.1,342.9L655.0,344.0L655.4,335.0L646.5,336.3L652.2,343.2L659.7,338.3L651.3,335.1L646.9,342.9L655.8,343.7L653.8,335.0L645.4,338.3L653.0,343.1L658.7,336.1L649.8,334.5L648.3,343.4L657.3,343.2L652.3,335.7L645.7,341.8L654.5,343.7L656.1,334.9L647.1,335.5L651.5,343.4L659.7,339.7L651.7,335.6L646.5,342.9L655.4,343.9L654.5,334.9L645.8,337.3L652.7,343.1L659.3,337.0L650.6,334.7L647.5,343.1L656.5,343.5L652.9,335.3L645.3,340.1L653.7,343.3L657.5,335.2" fill="none" stroke="rgba(255,255,255,1)" stroke-opacity="0.08" stroke-width="0.7"/><path d="M256.4,258.8L247.9,255.9L239.4,253.1L230.7,250.5L222.0,248.3L213.2,246.6L204.3,245.4L195.3,245.3L188.2,250.9L187.6,259.9L178.7,260.9L184.1,268.0L175.7,271.2L179.8,279.1L175.9,287.2L178.6,295.8L175.5,304.2L175.4,313.2L172.1,321.6L168.9,330.0L164.6,338.0L159.8,345.6L154.6,352.9L149.1,360.0L143.5,367.0L137.8,374.0L132.3,381.1L126.9,388.4L122.0,395.9L117.7,403.8L114.1,412.0L111.6,420.7L110.5,429.6L110.7,438.6L112.1,447.5L114.4,456.2L117.3,464.7L120.4,473.2L123.4,481.6L126.3,490.2L128.8,498.8L130.8,507.6L132.3,516.5L133.1,525.4L133.2,534.4L132.8,543.4L131.9,552.4L130.9,561.3L129.8,570.2L128.7,579.2" fill="none" stroke="rgba(255,255,255,1)" stroke-opacity="0.08" stroke-width="0.7"/><path d="M675.0,362.3L668.8,355.8L663.2,348.7L657.9,341.5L651.0,335.7L648.0,344.2L657.0,343.7L652.9,335.7L645.2,340.4L653.7,343.4L657.5,335.2L648.5,334.7L650.0,343.6L658.8,341.9L651.9,336.1L646.4,343.2L655.3,344.0L654.9,335.0L646.1,336.8L652.4,343.1L659.5,337.5L650.9,334.8L647.2,343.0L656.2,343.6L653.3,335.1L645.3,339.2L653.4,343.2L658.1,335.5L649.2,334.5L649.1,343.5L658.1,342.6L652.0,336.0L646.1,342.8L655.1,343.9L655.2,334.9L646.3,336.4L652.2,343.2L659.6,338.1L651.2,335.0L646.9,342.9L655.9,343.7L653.7,335.0L645.4,338.5L653.1,343.1L658.6,336.0L649.7,334.5L648.5,343.4L657.5,343.1L652.2,335.8L645.8,342.1L654.6,343.8L655.9,334.9L646.9,335.7L651.7,343.3L659.7,339.3L651.6,335.4L646.6,342.9L655.5,343.8L654.3,334.9L645.7,337.5L652.8,343.1L659.2,336.8L650.4,334.6L647.7,343.2L656.7,343.4" fill="none" stroke="rgba(255,255,255,1)" stroke-opacity="0.12" stroke-width="0.7"/><path d="M1054.5,69.6L1062.2,64.9L1070.0,60.4L1078.0,56.3L1086.2,52.6L1094.7,49.5L1103.4,47.2L1112.3,45.9L1121.3,45.7L1130.2,46.9L1138.8,49.5L1146.7,53.9L1153.1,60.2L1157.5,68.0L1159.5,76.8L1159.7,85.8L1158.9,94.8L1158.0,103.7L1157.8,112.7L1159.1,121.6L1161.8,130.2L1165.9,138.2L1171.2,145.5L1177.3,152.1L1184.3,157.8L1191.8,162.7L1199.8,166.9L1208.0,170.6L1216.4,173.9" fill="none" stroke="rgba(255,255,255,1)" stroke-opacity="0.09" stroke-width="0.7"/><path d="M481.3,140.9L476.8,148.7L480.2,157.0L484.9,164.7L490.0,172.1L495.3,179.4L500.9,186.4L506.7,193.3L512.6,200.1L518.6,206.8L524.4,213.7L529.7,220.9L534.2,228.7L537.1,237.3L537.8,246.2L536.2,255.1L532.9,263.5L528.5,271.3L523.5,278.8L518.0,285.9L512.3,292.9L506.7,299.9L501.3,307.2L496.8,314.9L493.9,323.4L495.1,332.4L501.0,339.1L508.8,343.6L517.2,347.0L525.8,349.6L534.5,351.7L543.3,353.5L552.2,355.0L561.1,356.3L570.1,357.3L579.0,358.2L588.0,359.0L597.0,359.7L605.9,360.3L614.9,360.8L623.9,361.1L632.9,361.1L641.9,360.4L650.7,358.5L658.4,353.8L659.5,344.8L654.2,337.6L645.2,337.8L652.5,343.0L659.4,337.2L650.8,334.7L647.3,343.0L656.3,343.6L653.1,335.1L645.3,339.5L653.5,343.2L657.9,335.4L648.9,334.6L649.4,343.6L658.3,342.4L652.0,336.1L646.2,343.0L655.2,344.0L655.1,335.0L646.2,336.6" fill="none" stroke="rgba(255,255,255,1)" stroke-opacity="0.09" stroke-width="0.7"/><path d="M130.9,425.8L130.5,434.8L131.5,443.8L133.5,452.5L136.2,461.1L139.4,469.5L142.7,477.9L145.9,486.3L148.7,494.9L151.0,503.6L152.2,512.5L152.5,521.5L151.7,530.5L150.2,539.3L148.3,548.1L146.1,556.9L144.0,565.6L142.1,574.4" fill="none" stroke="rgba(255,255,255,1)" stroke-opacity="0.06" stroke-width="0.7"/><path d="M454.8,265.1L448.0,271.1L440.7,276.2L432.8,280.6L424.5,284.1L415.8,286.5L406.9,287.7L397.9,287.7L389.0,286.6L380.2,284.7L371.5,282.2L363.0,279.3L354.5,276.3L346.0,273.2L337.5,270.3L329.0,267.4L320.4,264.7L311.8,262.0L303.2,259.5L294.5,257.1L285.8,254.8L277.1,252.7L268.3,250.6L259.5,248.7L250.7,247.0L241.8,245.5L232.9,244.3L223.9,243.5L214.9,243.2L205.9,243.3L197.0,244.3L189.5,249.3L188.6,258.3L179.6,258.8L185.4,265.8L176.6,267.7L180.9,275.6L175.1,282.4L178.7,290.7L176.3,299.3L176.5,308.3L173.5,316.8L171.0,325.4L167.1,333.6L162.6,341.4L157.6,348.8L152.2,356.1L146.7,363.1L141.0,370.1L135.4,377.1L129.9,384.3L124.7,391.6L120.0,399.3L116.0,407.4L112.9,415.8L111.0,424.6L110.4,433.6L111.2,442.6L113.0,451.4L115.6,460.0L118.6,468.5L121.7,476.9L124.7,485.4L127.5,494.0L129.8,502.7" fill="none" stroke="rgba(255,255,255,1)" stroke-opacity="0.09" stroke-width="0.7"/><path d="M1014.1,358.8L1014.5,349.9L1018.1,341.6L1026.0,337.3L1034.9,336.0L1043.9,335.9L1052.9,336.2L1061.9,336.7L1070.9,337.5L1079.9,338.2L1088.8,338.9L1097.8,339.5L1106.8,340.0L1115.8,340.0L1124.8,339.7L1133.7,338.7L1142.6,336.9L1151.2,334.3L1159.6,331.2L1168.2,328.3L1177.0,326.6L1185.9,325.7L1194.9,325.2L1203.9,325.1L1212.9,325.1" fill="none" stroke="#22d3ee" stroke-opacity="0.50" stroke-width="1.1"/><path d="M621.1,104.5L628.3,109.8L636.1,114.3L644.5,117.6L653.3,119.3L662.3,118.7L670.8,115.6L678.1,110.3L683.8,103.4L688.2,95.5L691.8,87.3L695.0,78.9L698.1,70.4L701.5,62.1L705.2,53.9L709.6,46.0L714.7,38.6L720.4,31.7L726.7,25.2L733.4,19.2L740.5,13.6L747.7,8.3L755.3,3.4L763.1,-1.1L771.2,-4.9L780.0,-7.0L785.9,-0.2L784.1,8.7L783.2,17.6L780.3,26.1L773.0,20.9L780.4,15.9L785.1,23.6L778.1,29.3L777.8,20.3L786.5,17.9L781.5,25.4L772.7,27.3L778.2,20.1L787.0,18.5L781.7,25.8L772.9,27.5L778.2,20.3L787.1,18.6L781.7,25.8L772.9,27.5L778.2,20.2L787.1,18.6L781.7,25.8L772.9,27.5L778.2,20.2L787.1,18.6L781.7,25.8L772.9,27.5L778.2,20.2L787.1,18.6L781.7,25.8L772.9,27.5L778.2,20.2L787.1,18.6L781.7,25.8L772.9,27.5L778.2,20.2L787.1,18.6L781.7,25.8" fill="none" stroke="rgba(255,255,255,1)" stroke-opacity="0.05" stroke-width="0.7"/><path d="M591.7,245.1L593.2,253.9L592.8,262.9L591.2,271.7L588.8,280.4L586.2,289.1L583.8,297.7L582.0,306.5L581.5,315.5L583.1,324.4L587.7,332.1L594.5,338.0L602.5,342.2L610.9,345.4L619.6,347.9L628.4,349.7L637.3,350.9L646.3,351.0L655.1,349.1L659.0,341.0L651.6,335.9L646.9,343.6L655.9,344.0L654.0,335.2L645.5,338.0L652.9,343.1L658.9,336.3L650.1,334.5L648.1,343.3L657.1,343.3L652.4,335.6L645.5,341.4L654.2,343.6L656.5,334.9L647.5,335.2L651.1,343.5L659.6,340.4L651.8,335.8L646.4,343.0L655.4,343.9L654.7,334.9L645.9,337.0L652.5,343.1L659.4,337.3L650.8,334.8L647.3,343.1L656.3,343.6L653.1,335.2L645.3,339.6L653.5,343.3L657.8,335.4L648.9,334.6L649.5,343.6L658.4,342.4L652.0,336.1L646.3,343.0L655.2,344.0L655.0,335.0L646.2,336.6L652.4,343.2L659.6,337.8L651.0,334.9L647.1,343.0L656.1,343.7L653.4,335.0" fill="none" stroke="rgba(255,255,255,1)" stroke-opacity="0.06" stroke-width="0.7"/><path d="M129.5,317.4L133.5,325.5L135.2,334.3L134.3,343.3L131.3,351.8L127.1,359.7L122.2,367.2L116.9,374.5L111.6,381.8L106.3,389.1L101.3,396.6L96.8,404.4L93.0,412.5L90.2,421.1L88.9,430.0L89.1,439.0L90.8,447.8L93.5,456.4L96.7,464.8L100.0,473.2L103.3,481.6L106.3,490.0L108.9,498.6L111.0,507.4L112.6,516.2L113.6,525.2L114.1,534.2L113.9,543.2L113.4,552.2L112.7,561.1L111.9,570.1L111.1,579.1" fill="none" stroke="rgba(255,255,255,1)" stroke-opacity="0.09" stroke-width="0.7"/><path d="M600.1,206.0L608.9,207.5L617.8,209.1L626.7,210.7L635.5,212.1L644.5,213.2L653.5,213.7L662.5,213.5L671.4,212.2L680.1,210.1L688.6,207.2L697.0,203.9L705.3,200.4L713.6,196.8L721.8,193.2L730.1,189.7L738.5,186.4L747.0,183.5L755.7,181.2L764.6,180.0L773.6,180.5L782.0,183.8L788.6,189.8L793.5,197.4L797.2,205.6L800.6,214.0L804.3,222.1L809.4,229.6L816.6,234.9L825.2,237.7L834.1,239.2L843.0,240.1L852.0,240.5L861.0,240.9L870.0,241.4L879.0,242.1L887.9,243.0L896.9,244.1L905.7,245.5L914.6,247.1L923.4,249.1L932.1,251.3L940.8,253.8L949.3,256.5L957.8,259.5L966.3,262.6L974.7,265.7L983.1,268.9L991.5,272.2L999.8,275.6L1008.1,279.1L1016.3,282.8L1024.5,286.6L1032.6,290.5L1040.7,294.4L1048.8,298.4L1056.9,302.2L1065.1,306.0L1073.4,309.5L1081.8,312.8L1090.2,315.9L1098.8,318.7L1107.4,321.3L1116.1,323.7L1124.8,325.8" fill="none" stroke="rgba(255,255,255,1)" stroke-opacity="0.05" stroke-width="0.7"/><path d="M652.3,494.7L661.3,495.7L669.7,492.5L673.1,484.2L674.1,475.3L674.3,466.3L674.4,457.3L674.3,448.3L673.9,439.3L673.0,430.3L671.7,421.4L670.0,412.6L668.1,403.8L666.2,395.0L664.6,386.2L663.4,377.2L662.8,368.2L662.5,359.3L661.0,350.4L657.8,342.0L651.3,335.7L647.3,343.8L656.3,343.8L653.5,335.3L645.3,339.0L653.3,343.2L658.3,335.7L649.4,334.5L648.9,343.5L657.8,342.8L652.1,335.9L646.0,342.5L654.9,343.9L655.5,334.9L646.6,336.1L652.0,343.2L659.7,338.5L651.4,335.2L646.8,342.9L655.7,343.8L653.9,334.9L645.5,338.1L653.0,343.1L658.9,336.3L650.0,334.5L648.1,343.3L657.1,343.3L652.4,335.6L645.6,341.5L654.3,343.6L656.4,334.9L647.4,335.3L651.2,343.5L659.6,340.3L651.8,335.8L646.4,343.0L655.4,343.9L654.7,334.9L645.9,337.0L652.6,343.1L659.4,337.2L650.8,334.7L647.4,343.1L656.3,343.6L653.1,335.2" fill="none" stroke="rgba(255,255,255,1)" stroke-opacity="0.05" stroke-width="0.7"/><path d="M1019.3,365.5L1021.6,356.8L1026.6,349.4L1034.5,345.1L1043.3,343.2L1052.3,342.5L1061.3,342.3L1070.3,342.5L1079.3,342.8L1088.3,343.1L1097.3,343.4L1106.3,343.4L1115.3,343.1L1124.2,342.3L1133.1,340.8L1141.8,338.5L1150.2,335.4L1158.5,331.8L1166.9,328.7L1175.7,326.7L1184.7,325.8L1193.7,325.2L1202.7,325.1L1211.7,325.1" fill="none" stroke="rgba(255,255,255,1)" stroke-opacity="0.04" stroke-width="0.7"/><path d="M721.2,286.7L712.6,283.9L704.0,281.3L695.3,278.9L686.5,277.2L677.5,276.5L668.6,277.2L659.9,279.6L652.0,283.9L645.0,289.7L639.2,296.5L634.4,304.1L631.0,312.4L629.5,321.3L631.1,330.2L636.3,337.5L644.0,342.2L652.8,344.2L659.3,338.0L650.8,335.0L647.6,343.4L656.6,343.6L652.9,335.4L645.3,340.1L653.7,343.4L657.6,335.2L648.6,334.7L649.9,343.6L658.7,342.0L651.9,336.1L646.3,343.2L655.3,344.0L654.9,335.0L646.1,336.8L652.4,343.1L659.5,337.6L650.9,334.8L647.2,343.0L656.2,343.6L653.3,335.1L645.3,339.2L653.4,343.2L658.1,335.6L649.2,334.5L649.1,343.5L658.1,342.7L652.0,336.0L646.1,342.8L655.1,343.9L655.3,334.9L646.4,336.4L652.2,343.2L659.7,338.1L651.2,335.0L646.9,342.9L655.9,343.7L653.7,335.0L645.4,338.5L653.1,343.1L658.6,336.0L649.7,334.5L648.5,343.4L657.5,343.1L652.2,335.8L645.8,342.0" fill="none" stroke="rgba(255,255,255,1)" stroke-opacity="0.05" stroke-width="0.7"/><path d="M70.4,208.3L78.5,204.3L86.4,200.0L94.1,195.3L101.4,190.1L108.6,184.7L115.6,179.1L122.5,173.3L129.2,167.2L135.5,160.8L141.4,154.0L146.2,146.4L148.7,137.7L145.8,129.2L139.6,122.7L132.6,117.1L125.2,112.0L117.5,107.3L109.6,102.9L101.7,98.7L93.7,94.6L85.7,90.4L77.9,86.0L70.2,81.3L62.8,76.2L55.7,70.7L49.0,64.6L42.9,58.0L37.4,50.8L32.7,43.2L28.6,35.1L25.3,26.8L22.4,18.3L20.0,9.6L17.8,0.9L15.6,-7.9L13.3,-16.6" fill="none" stroke="rgba(255,255,255,1)" stroke-opacity="0.11" stroke-width="0.7"/><path d="M1122.1,339.9L1131.1,339.1L1140.0,337.6L1148.6,335.2L1157.1,332.1L1165.6,329.1L1174.3,327.0L1183.3,325.9L1192.3,325.3L1201.3,325.1L1210.3,325.2L1219.3,325.1" fill="none" stroke="rgba(255,255,255,1)" stroke-opacity="0.12" stroke-width="0.7"/><path d="M110.8,212.8L118.9,208.7L126.6,204.1L134.1,199.1L141.5,194.0L149.0,189.1L156.9,184.6L165.1,181.0L173.8,178.6L182.8,177.9L191.7,179.0L200.2,181.9L208.2,186.1L215.6,191.2L222.6,196.8L229.2,203.0L235.4,209.5L241.2,216.4L246.3,223.8L249.6,232.2L245.6,240.2L236.6,241.3L227.7,241.8L218.7,242.2L209.7,242.6L200.7,243.6L192.1,246.2L192.8,255.2L183.8,254.3L188.9,261.7L179.9,261.5L183.8,269.6L175.4,272.7L179.5,280.8L176.3,289.2L178.3,297.9L175.3,306.4L174.8,315.4L171.4,323.7L167.9,332.0L163.5,339.9L158.6,347.4L153.3,354.7L147.7,361.8L142.1,368.8L136.4,375.8L130.9,382.9L125.7,390.2L120.9,397.8L116.7,405.8L113.4,414.2L111.2,422.9L110.4,431.9L110.9,440.8L112.6,449.7L115.1,458.3L118.0,466.8L121.1,475.3L124.2,483.7L126.9,492.3L129.4,501.0L131.3,509.8L132.5,518.7L133.2,527.7L133.2,536.7" fill="none" stroke="rgba(255,255,255,1)" stroke-opacity="0.05" stroke-width="0.7"/><path d="M1191.3,519.3L1185.5,526.2L1178.3,531.6L1170.3,535.7L1161.7,538.5L1152.9,539.9L1143.9,539.7L1135.0,538.0L1126.7,534.6L1119.0,530.0L1112.1,524.2L1106.3,517.3L1104.7,508.4L1112.4,513.1L1119.0,519.2L1110.7,515.8L1109.2,506.9L1115.9,512.9L1119.5,521.2L1111.6,516.9L1107.0,509.1L1114.5,514.1L1117.6,522.6L1110.4,517.2L1106.6,509.0L1114.1,513.9L1118.3,521.9L1110.9,516.9L1106.9,508.8L1114.4,513.9L1118.3,522.0L1110.8,516.9L1106.9,508.9L1114.3,513.9L1118.3,522.0L1110.8,517.0L1106.9,508.9L1114.3,513.9L1118.3,522.0L1110.8,516.9L1106.9,508.9L1114.3,513.9L1118.3,522.0L1110.8,516.9L1106.9,508.9L1114.3,513.9L1118.3,522.0L1110.8,516.9L1106.9,508.9L1114.3,513.9L1118.3,522.0L1110.8,516.9L1106.9,508.9L1114.3,513.9L1118.3,522.0L1110.8,516.9L1106.9,508.9L1114.3,513.9L1118.3,522.0L1110.8,516.9L1106.9,508.9L1114.3,513.9L1118.3,522.0L1110.8,516.9L1106.9,508.9" fill="none" stroke="rgba(255,255,255,1)" stroke-opacity="0.09" stroke-width="0.7"/><path d="M437.4,215.7L437.8,224.7L436.3,233.5L432.7,241.8L426.9,248.7L419.6,253.9L411.4,257.6L402.6,259.7L393.6,260.4L384.6,260.1L375.7,259.0L366.8,257.6L358.0,256.0L349.1,254.5L340.2,253.3L331.2,252.1L322.3,251.1L313.4,250.1L304.4,249.2L295.4,248.3L286.5,247.4L277.5,246.5L268.6,245.6L259.6,244.8L250.6,244.0L241.7,243.4L232.7,242.9L223.7,242.7L214.7,242.7L205.7,243.1L196.8,244.4L189.5,249.6L187.2,258.3L178.4,260.4L184.2,267.4L175.8,270.5L180.0,278.4L175.7,286.3L178.6,294.8L175.7,303.3L175.7,312.3L172.3,320.7L169.3,329.2L165.1,337.2L160.4,344.8L155.2,352.2L149.7,359.3L144.1,366.3L138.4,373.3L132.8,380.4L127.5,387.6L122.5,395.1L118.1,402.9L114.4,411.2L111.8,419.8L110.5,428.7L110.6,437.7L111.9,446.6L114.1,455.3L117.0,463.9L120.0,472.3L123.1,480.8L126.0,489.3L128.6,497.9L130.7,506.7" fill="none" stroke="rgba(255,255,255,1)" stroke-opacity="0.11" stroke-width="0.7"/><path d="M1061.3,111.1L1068.6,105.9L1075.5,100.0L1082.0,93.9L1088.5,87.6L1095.0,81.4L1101.8,75.5L1109.1,70.2L1117.0,65.9L1125.6,63.2L1134.6,62.7L1143.2,65.4L1149.9,71.3L1153.7,79.5L1155.0,88.4L1155.0,97.4L1155.1,106.4L1155.9,115.3L1158.1,124.0L1161.6,132.4L1166.2,140.1L1171.7,147.2L1178.1,153.5L1185.3,159.0L1192.9,163.8L1200.9,167.8L1209.2,171.4L1217.6,174.7" fill="none" stroke="rgba(255,255,255,1)" stroke-opacity="0.10" stroke-width="0.7"/><path d="M718.3,516.0L727.3,516.4L736.2,517.5L745.1,519.1L753.8,521.2L762.6,523.1L771.5,524.3L780.5,524.2L789.4,522.6L798.0,519.9L806.5,517.0L815.1,514.5L824.0,512.8L832.9,511.8L841.9,511.3L850.9,511.1L859.9,511.1L868.9,511.4L877.9,512.2L886.8,513.5L895.6,515.4L904.0,518.5L911.3,523.8L913.1,532.6L906.5,538.7L897.5,539.3L894.5,530.8L901.0,524.5L909.2,528.2L907.0,536.9L898.2,538.7L894.7,530.4L901.5,524.5L909.5,528.6L906.6,537.2L897.7,538.5L894.9,529.9L902.1,524.5L909.8,529.2L906.1,537.4L897.1,538.1L895.2,529.4L902.8,524.6L910.1,529.8L905.6,537.6L896.6,537.8L895.4,528.9L903.4,524.7L910.3,530.4L905.1,537.8L896.1,537.4L895.6,528.4L903.9,524.8L910.4,531.0L904.7,538.0L895.8,537.1L895.8,528.1L904.3,524.9L910.4,531.5L904.4,538.1L895.5,536.8L896.0,527.8L904.5,525.0L910.4,531.8L904.1,538.2" fill="none" stroke="rgba(255,255,255,1)" stroke-opacity="0.07" stroke-width="0.7"/><path d="M1098.6,467.9L1105.0,474.3L1111.2,480.8L1117.3,487.4L1123.1,494.3L1128.3,501.6L1132.3,509.7L1132.7,518.7L1124.7,522.8L1116.1,520.1L1109.0,514.6L1116.3,509.4L1121.3,516.9L1112.7,519.5L1106.9,512.7L1115.7,514.2L1116.9,523.1L1109.9,517.4L1106.3,509.2L1113.9,513.9L1118.5,521.6L1111.0,516.8L1107.1,508.7L1114.4,513.8L1118.4,521.9L1110.9,516.9L1106.9,508.8L1114.4,513.9L1118.3,522.0L1110.8,517.0L1106.9,508.9L1114.3,513.9L1118.3,522.0L1110.8,516.9L1106.9,508.9L1114.3,513.9L1118.3,522.0L1110.8,516.9L1106.9,508.9L1114.3,513.9L1118.3,522.0L1110.8,516.9L1106.9,508.9L1114.3,513.9L1118.3,522.0L1110.8,516.9L1106.9,508.9L1114.3,513.9L1118.3,522.0L1110.8,516.9L1106.9,508.9L1114.3,513.9L1118.3,522.0L1110.8,516.9L1106.9,508.9L1114.3,513.9L1118.3,522.0L1110.8,516.9L1106.9,508.9L1114.3,513.9L1118.3,522.0L1110.8,516.9L1106.9,508.9L1114.3,513.9L1118.3,522.0" fill="none" stroke="rgba(255,255,255,1)" stroke-opacity="0.10" stroke-width="0.7"/><path d="M1147.1,103.7L1150.8,111.9L1154.0,120.3L1157.7,128.5L1162.1,136.4L1167.4,143.7L1173.4,150.3L1180.2,156.2L1187.6,161.3L1195.5,165.8L1203.6,169.6L1212.0,173.0" fill="none" stroke="rgba(255,255,255,1)" stroke-opacity="0.07" stroke-width="0.7"/><path d="M366.4,170.4L362.6,178.6L358.2,186.4L353.7,194.2L349.1,201.9L344.1,209.4L338.6,216.6L332.5,223.1L325.5,228.8L317.7,233.4L309.4,236.9L300.8,239.4L291.9,241.1L283.0,242.1L274.0,242.7L265.0,242.9L256.0,242.9L247.0,242.7L238.0,242.6L229.0,242.4L220.0,242.4L211.0,242.7L202.1,243.4L193.3,245.5L191.7,254.4L182.7,254.1L189.0,260.5L180.0,260.3L184.6,268.1L175.9,270.5L180.0,278.5L175.6,286.4L178.6,294.9L175.7,303.4L175.7,312.4L172.3,320.7L169.2,329.2L165.1,337.2L160.3,344.8L155.2,352.2L149.7,359.3L144.1,366.3L138.4,373.3L132.8,380.4L127.5,387.6L122.5,395.1L118.1,403.0L114.4,411.2L111.8,419.8L110.5,428.7L110.6,437.7L111.9,446.6L114.1,455.3L117.0,463.9L120.1,472.3L123.1,480.8L126.0,489.3L128.6,497.9L130.7,506.7L132.2,515.6L133.0,524.5L133.2,533.5L132.9,542.5L132.0,551.5L131.0,560.4" fill="none" stroke="rgba(255,255,255,1)" stroke-opacity="0.10" stroke-width="0.7"/><path d="M623.7,61.0L630.6,66.7L638.4,71.2L646.9,74.3L655.8,75.3L664.6,73.1L671.9,67.9L677.8,61.1L682.9,53.7L687.7,46.1L692.8,38.6L698.2,31.5L704.3,24.8L710.8,18.6L717.8,12.9L725.0,7.6L732.4,2.4L739.9,-2.6L747.4,-7.5L755.0,-12.3L762.8,-16.8" fill="none" stroke="rgba(255,255,255,1)" stroke-opacity="0.11" stroke-width="0.7"/><path d="M541.2,208.0L548.5,213.4L555.6,218.9L562.4,224.7L568.6,231.3L573.4,238.9L576.2,247.5L576.7,256.5L575.4,265.4L573.0,274.0L570.0,282.5L566.9,291.0L563.9,299.5L561.5,308.2L560.5,317.1L561.9,326.0L566.7,333.6L573.7,339.2L581.8,343.2L590.3,346.2L599.0,348.5L607.8,350.5L616.6,352.1L625.5,353.3L634.5,354.0L643.5,354.0L652.4,352.4L659.4,346.8L655.5,338.7L647.0,335.9L651.9,343.4L659.7,339.0L651.5,335.3L646.7,342.9L655.6,343.8L654.1,334.9L645.6,337.8L652.9,343.1L659.0,336.5L650.2,334.6L647.9,343.2L656.9,343.4L652.6,335.5L645.4,341.0L654.1,343.5L656.8,335.0L647.8,335.0L650.8,343.5L659.4,340.9L651.9,336.0L646.4,343.1L655.3,344.0L654.8,335.0L646.0,336.9L652.5,343.1L659.5,337.4L650.8,334.8L647.3,343.0L656.2,343.6L653.2,335.1L645.3,339.5L653.4,343.2L658.0,335.4L649.0,334.6L649.3,343.5" fill="none" stroke="rgba(255,255,255,1)" stroke-opacity="0.05" stroke-width="0.7"/><path d="M196.3,505.8L189.6,499.8L183.4,493.3L180.5,484.8L189.5,484.6L190.7,475.7L193.0,467.0L195.1,458.3L196.7,449.4L197.8,440.5L198.5,431.5L198.8,422.5L198.8,413.5L198.5,404.5L197.8,395.5L196.8,386.6L195.3,377.7L193.4,368.9L190.9,360.3L187.3,352.0L181.8,344.9L173.8,340.9L165.5,344.4L159.3,351.0L153.5,357.8L147.7,364.7L141.9,371.6L136.2,378.6L130.8,385.7L125.6,393.1L121.1,400.9L117.2,409.0L114.3,417.5L112.6,426.4L112.3,435.4L113.3,444.3L115.4,453.1L118.1,461.7L121.1,470.1L124.2,478.6L127.2,487.1L129.8,495.7L132.1,504.4L133.7,513.2L134.7,522.2L135.0,531.2L134.7,540.2L133.9,549.1L132.8,558.1L131.6,567.0L130.5,575.9" fill="none" stroke="rgba(255,255,255,1)" stroke-opacity="0.09" stroke-width="0.7"/><path d="M960.0,457.6L968.8,459.5L977.6,461.5L986.3,463.7L995.0,466.2L1003.5,469.1L1011.9,472.4L1020.0,476.2L1028.0,480.5L1035.6,485.1L1043.1,490.1L1050.5,495.3L1057.9,500.4L1065.5,505.2L1073.8,508.7L1082.7,509.8L1091.7,509.7L1100.7,510.5L1109.5,512.5L1117.5,516.5L1108.5,516.6L1106.9,507.7L1114.1,513.1L1119.1,520.6L1111.2,516.4L1107.6,508.1L1114.8,513.6L1118.7,521.7L1111.1,516.9L1107.0,508.8L1114.4,513.9L1118.2,522.1L1110.8,517.0L1106.8,508.9L1114.3,513.9L1118.3,522.0L1110.8,517.0L1106.9,508.9L1114.3,513.9L1118.3,522.0L1110.8,516.9L1106.9,508.9L1114.3,513.9L1118.3,522.0L1110.8,516.9L1106.9,508.9L1114.3,513.9L1118.3,522.0L1110.8,516.9L1106.9,508.9L1114.3,513.9L1118.3,522.0L1110.8,516.9L1106.9,508.9L1114.3,513.9L1118.3,522.0L1110.8,516.9L1106.9,508.9L1114.3,513.9L1118.3,522.0L1110.8,516.9L1106.9,508.9L1114.3,513.9L1118.3,522.0L1110.8,516.9" fill="none" stroke="rgba(255,255,255,1)" stroke-opacity="0.08" stroke-width="0.7"/><path d="M535.2,378.1L544.2,378.6L553.2,379.0L562.2,379.4L571.2,379.6L580.2,379.8L589.2,380.0L598.2,380.1L607.2,380.2L616.2,380.2L625.2,380.1L634.2,379.6L643.1,378.3L651.7,375.7L658.9,370.4L662.1,362.0L661.6,353.0L659.0,344.3L653.7,337.1L644.9,339.0L652.9,343.2L659.0,336.5L650.2,334.6L648.0,343.3L657.0,343.3L652.5,335.5L645.5,341.1L654.1,343.6L656.7,334.9L647.7,335.1L650.9,343.5L659.5,340.8L651.9,335.9L646.4,343.1L655.3,343.9L654.8,335.0L646.0,336.9L652.5,343.1L659.4,337.4L650.8,334.8L647.3,343.0L656.3,343.6L653.2,335.1L645.3,339.5L653.5,343.2L657.9,335.4L649.0,334.6L649.4,343.5L658.3,342.5L652.0,336.1L646.2,343.0L655.2,344.0L655.1,335.0L646.2,336.5L652.3,343.2L659.6,337.9L651.1,334.9L647.0,343.0L656.0,343.7L653.5,335.0L645.3,338.8L653.2,343.1L658.4,335.8L649.5,334.5L648.8,343.5" fill="none" stroke="rgba(255,255,255,1)" stroke-opacity="0.05" stroke-width="0.7"/><path d="M517.6,73.0L511.5,66.4L505.9,59.3L501.6,51.4L501.1,42.4L508.8,37.8L517.6,35.9L526.5,34.3L535.2,32.3L543.0,27.8L540.5,19.2L542.6,10.4L539.9,1.9L543.5,-6.4L539.5,-14.4" fill="none" stroke="#da77f2" stroke-opacity="0.50" stroke-width="1.1"/><path d="M510.8,171.0L517.0,177.5L523.6,183.6L530.6,189.2L538.0,194.4L545.8,198.9L553.8,203.1L562.0,206.8L570.3,210.1L578.7,213.3L587.1,216.6L595.4,220.0L603.5,224.0L611.0,229.0L617.5,235.2L622.3,242.8L624.3,251.6L623.6,260.6L621.3,269.3L618.4,277.8L615.4,286.3L612.6,294.8L610.4,303.6L609.4,312.5L610.2,321.5L613.8,329.8L619.9,336.3L627.5,341.1L635.9,344.4L644.7,346.4L653.7,346.3L659.0,339.0L650.8,335.4L648.1,344.0L657.1,343.5L652.7,335.7L645.3,340.8L653.9,343.5L657.1,335.1L648.2,334.9L650.4,343.6L659.1,341.4L651.9,336.1L646.4,343.2L655.3,344.0L654.8,335.0L646.0,336.8L652.5,343.1L659.5,337.5L650.9,334.8L647.2,343.0L656.2,343.6L653.2,335.1L645.3,339.4L653.4,343.2L658.0,335.5L649.1,334.5L649.2,343.5L658.2,342.6L652.0,336.0L646.2,342.9L655.1,344.0L655.2,335.0L646.3,336.5L652.3,343.2" fill="none" stroke="rgba(255,255,255,1)" stroke-opacity="0.05" stroke-width="0.7"/><path d="M167.0,446.0L171.2,454.0L177.3,460.6L186.0,462.6L191.0,455.1L193.4,446.4L194.8,437.5L195.6,428.5L195.9,419.6L195.6,410.6L194.9,401.6L193.5,392.7L191.5,383.9L188.6,375.4L184.3,367.5L177.9,361.2L169.0,359.7L161.0,363.8L154.2,369.7L147.8,376.0L141.9,382.8L136.4,389.9L131.4,397.4L127.1,405.3L123.7,413.7L121.5,422.4L120.6,431.3L121.0,440.3L122.6,449.2L125.0,457.8L128.0,466.3L131.1,474.8L134.2,483.2L137.1,491.8L139.5,500.4L141.4,509.2L142.5,518.2L142.8,527.2L142.3,536.2L141.3,545.1L139.9,554.0L138.3,562.8L136.8,571.7" fill="none" stroke="rgba(255,255,255,1)" stroke-opacity="0.06" stroke-width="0.7"/><path d="M132.4,134.6L128.9,126.3L122.9,119.6L115.9,113.9L108.4,108.9L100.6,104.4L92.8,100.0L84.9,95.7L77.0,91.3L69.3,86.6L61.8,81.7L54.5,76.4L47.6,70.7L41.1,64.5L35.0,57.8L29.6,50.6L24.7,43.0L20.5,35.1L16.8,26.9L13.5,18.5L10.6,10.0L8.0,1.4L5.3,-7.2L2.7,-15.8" fill="none" stroke="rgba(255,255,255,1)" stroke-opacity="0.05" stroke-width="0.7"/><path d="M734.2,476.3L730.4,468.2L726.5,460.1L722.4,452.0L718.2,444.1L713.5,436.4L708.4,429.0L703.0,421.8L697.1,415.0L691.0,408.4L684.8,401.9L678.6,395.3L672.8,388.5L667.8,381.0L664.5,372.6L663.0,363.7L662.0,354.8L659.7,346.1L655.1,338.4L646.3,336.3L652.1,343.2L659.7,338.4L651.3,335.1L646.8,342.9L655.8,343.7L653.9,334.9L645.5,338.2L653.0,343.1L658.8,336.2L649.9,334.5L648.2,343.3L657.2,343.2L652.3,335.6L645.6,341.6L654.4,343.7L656.3,334.9L647.3,335.4L651.3,343.4L659.7,340.0L651.8,335.7L646.4,343.0L655.4,343.9L654.6,334.9L645.9,337.1L652.6,343.1L659.4,337.2L650.7,334.7L647.4,343.1L656.4,343.5L653.0,335.2L645.3,339.8L653.6,343.3L657.7,335.3L648.7,334.6L649.7,343.6L658.6,342.2L652.0,336.1L646.3,343.1L655.3,344.0L655.0,335.0L646.1,336.7L652.4,343.1L659.5,337.6L651.0,334.9L647.1,343.0" fill="none" stroke="rgba(255,255,255,1)" stroke-opacity="0.10" stroke-width="0.7"/><path d="M703.0,279.2L694.3,276.9L685.4,275.3L676.5,274.7L667.5,275.6L658.9,278.2L651.1,282.7L644.3,288.6L638.5,295.5L633.8,303.2L630.4,311.5L628.8,320.4L630.1,329.3L635.1,336.8L642.6,341.8L651.3,344.2L659.5,340.6L651.8,335.9L646.4,343.1L655.4,343.9L654.7,335.0L645.9,337.0L652.5,343.1L659.4,337.3L650.8,334.8L647.3,343.1L656.3,343.6L653.1,335.2L645.3,339.6L653.5,343.3L657.9,335.4L648.9,334.6L649.5,343.6L658.4,342.4L652.0,336.1L646.3,343.0L655.2,344.0L655.0,335.0L646.2,336.6L652.4,343.2L659.6,337.8L651.0,334.9L647.1,343.0L656.1,343.7L653.4,335.0L645.3,338.9L653.3,343.2L658.3,335.7L649.4,334.5L648.9,343.5L657.8,342.8L652.1,335.9L646.0,342.5L654.9,343.9L655.5,334.9L646.5,336.1L652.1,343.2L659.7,338.5L651.4,335.2L646.8,342.9L655.7,343.8L653.9,334.9L645.5,338.1L653.0,343.1L658.8,336.3" fill="none" stroke="rgba(255,255,255,1)" stroke-opacity="0.11" stroke-width="0.7"/><path d="M186.7,144.1L189.8,152.5L196.7,158.3L203.6,164.1L210.4,169.9L217.2,175.8L223.9,181.9L230.4,188.0L236.8,194.4L243.1,200.9L249.2,207.5L254.9,214.4L259.8,222.0L262.6,230.5L258.9,238.7L250.1,240.8L241.1,241.6L232.1,241.9L223.2,242.1L214.2,242.4L205.2,243.0L196.3,244.5L189.4,250.3L184.6,257.9L180.5,265.9L179.7,274.9L176.5,283.3L178.7,292.0L176.1,300.6L176.3,309.6L173.1,318.1L170.4,326.6L166.5,334.7L161.9,342.5L156.8,349.9L151.4,357.1L145.8,364.2L140.2,371.2L134.5,378.2L129.1,385.4L124.0,392.8L119.4,400.5L115.5,408.6L112.5,417.1L110.8,425.9L110.4,434.9L111.4,443.9L113.4,452.7L116.0,461.2L119.1,469.7L122.2,478.2L125.2,486.7L127.8,495.3L130.1,504.0L131.8,512.8L132.8,521.7L133.2,530.7L133.0,539.7L132.3,548.7L131.3,557.6L130.2,566.6L129.1,575.5" fill="none" stroke="rgba(255,255,255,1)" stroke-opacity="0.05" stroke-width="0.7"/><path d="M21.9,179.7L30.7,177.8L39.4,175.5L47.9,172.7L56.2,169.2L64.2,165.1L71.6,160.0L78.3,153.9L83.5,146.6L86.1,138.0L84.7,129.1L79.9,121.4L73.6,115.0L66.7,109.2L59.6,103.8L52.3,98.4L45.1,93.1L38.0,87.5L31.1,81.8L24.4,75.8L18.0,69.5L11.9,62.8L6.2,55.9L0.8,48.6L-4.1,41.1L-8.5,33.3L-12.4,25.2L-15.9,16.9L-19.0,8.4" fill="none" stroke="rgba(255,255,255,1)" stroke-opacity="0.09" stroke-width="0.7"/><path d="M320.1,235.5L311.6,238.3L302.8,240.3L293.9,241.7L284.9,242.5L275.9,243.0L266.9,243.1L257.9,243.1L248.9,242.9L240.0,242.6L231.0,242.5L222.0,242.4L213.0,242.6L204.0,243.2L195.1,244.8L189.8,252.1L181.3,255.1L187.9,261.3L178.9,261.8L183.7,269.4L175.4,272.8L179.5,280.8L176.3,289.2L178.3,297.9L175.3,306.4L174.8,315.4L171.4,323.7L167.9,332.0L163.5,339.9L158.6,347.4L153.3,354.7L147.7,361.8L142.1,368.8L136.4,375.8L130.9,382.9L125.7,390.2L120.9,397.8L116.7,405.8L113.4,414.2L111.2,422.9L110.4,431.9L110.9,440.8L112.6,449.7L115.1,458.3L118.0,466.8L121.1,475.3L124.2,483.8L127.0,492.3L129.4,501.0L131.3,509.8L132.5,518.7L133.2,527.7L133.2,536.7L132.6,545.7L131.7,554.6L130.6,563.5L129.5,572.5" fill="none" stroke="rgba(255,255,255,1)" stroke-opacity="0.11" stroke-width="0.7"/><path d="M1084.5,262.2L1092.1,266.9L1099.8,271.6L1107.5,276.3L1115.1,281.1L1122.6,286.0L1130.1,291.1L1137.5,296.2L1144.9,301.4L1152.3,306.5L1159.7,311.5L1167.3,316.4L1175.0,321.0L1183.2,324.8L1192.1,326.1L1200.7,323.4L1209.1,326.6L1216.2,321.1" fill="none" stroke="rgba(255,255,255,1)" stroke-opacity="0.05" stroke-width="0.7"/><path d="M282.1,432.2L279.6,423.6L277.7,414.8L276.4,405.9L275.5,396.9L274.9,387.9L274.7,378.9L274.5,369.9L274.4,360.9L273.8,351.9L272.5,343.0L270.1,334.4L266.4,326.2L261.5,318.6L255.4,312.0L248.6,306.1L241.3,300.8L233.6,296.2L225.7,291.9L217.6,288.0L209.3,284.4L200.9,281.2L192.4,278.3L183.6,276.4L175.0,279.2L178.8,287.3L176.7,296.1L177.1,305.1L174.2,313.7L172.2,322.4L168.6,330.6L164.3,338.6L159.4,346.2L154.2,353.5L148.7,360.6L143.1,367.6L137.4,374.6L131.8,381.7L126.5,388.9L121.6,396.5L117.3,404.4L113.9,412.7L111.5,421.4L110.4,430.3L110.7,439.3L112.2,448.2L114.6,456.9L117.5,465.4L120.6,473.8L123.7,482.3L126.5,490.9L129.0,499.5L131.0,508.3L132.4,517.2L133.1,526.1L133.2,535.1L132.7,544.1L131.9,553.1L130.8,562.0L129.7,571.0L128.6,579.9" fill="none" stroke="rgba(255,255,255,1)" stroke-opacity="0.12" stroke-width="0.7"/><path d="M606.5,61.7L612.3,68.7L618.7,74.9L625.7,80.7L633.0,85.9L640.8,90.3L649.3,93.5L658.2,94.6L666.9,92.5L674.3,87.4L680.2,80.5L684.9,72.9L689.2,64.9L693.3,56.9L697.7,49.1L702.5,41.5L708.0,34.3L714.0,27.6L720.5,21.4L727.4,15.7L734.6,10.2L742.0,5.0L749.5,0.1L757.2,-4.6L765.0,-9.0L773.3,-12.5L782.2,-13.6L784.5,-4.9L783.9,4.1L783.8,13.1L782.2,22.0L776.8,29.2L778.9,20.4L787.9,20.5L781.9,27.2L772.9,27.3L778.3,20.1L787.2,18.8L781.8,25.9L772.9,27.5L778.2,20.3L787.1,18.6L781.7,25.8L772.9,27.5L778.2,20.2L787.1,18.6L781.7,25.8L772.9,27.5L778.2,20.2L787.1,18.6L781.7,25.8L772.9,27.5L778.2,20.2L787.1,18.6L781.7,25.8L772.9,27.5L778.2,20.2L787.1,18.6L781.7,25.8L772.9,27.5L778.2,20.2L787.1,18.6L781.7,25.8L772.9,27.5L778.2,20.2" fill="none" stroke="rgba(255,255,255,1)" stroke-opacity="0.10" stroke-width="0.7"/><path d="M487.4,149.0L491.1,157.2L496.1,164.7L501.5,171.9L507.2,178.8L513.3,185.5L519.7,191.8L526.4,197.8L533.3,203.5L540.4,209.1L547.5,214.7L554.4,220.4L560.9,226.7L566.5,233.7L570.4,241.8L572.1,250.6L571.7,259.6L569.8,268.4L566.9,277.0L563.7,285.3L560.3,293.7L557.2,302.1L554.8,310.8L554.0,319.8L556.1,328.5L561.7,335.6L569.1,340.6L577.4,344.3L585.9,347.1L594.7,349.3L603.5,351.1L612.3,352.7L621.2,353.9L630.2,354.7L639.2,354.9L648.2,354.1L656.6,350.9L659.0,342.2L652.3,336.3L645.8,342.5L654.7,343.9L656.0,335.0L647.0,335.7L651.7,343.4L659.7,339.3L651.6,335.5L646.6,342.9L655.5,343.8L654.3,334.9L645.7,337.5L652.7,343.1L659.2,336.8L650.4,334.6L647.7,343.2L656.7,343.5L652.7,335.4L645.3,340.5L653.8,343.4L657.2,335.1L648.2,334.8L650.3,343.6L659.1,341.5L651.9,336.1L646.4,343.2L655.3,344.0" fill="none" stroke="rgba(255,255,255,1)" stroke-opacity="0.07" stroke-width="0.7"/><path d="M824.9,209.2L825.3,218.2L827.5,226.9L832.7,234.3L840.9,238.1L849.7,239.7L858.7,240.4L867.7,241.0L876.6,241.8L885.6,242.6L894.5,243.7L903.4,245.1L912.3,246.6L921.1,248.5L929.9,250.6L938.5,253.0L947.1,255.7L955.6,258.6L964.1,261.7L972.5,264.8L980.9,268.0L989.3,271.3L997.7,274.7L1006.0,278.2L1014.2,281.8L1022.4,285.6L1030.5,289.4L1038.6,293.4L1046.7,297.3L1054.8,301.2L1063.0,305.0L1071.2,308.6L1079.6,311.9L1088.0,315.1L1096.5,317.9L1105.1,320.6L1113.8,323.0L1122.5,325.2L1131.3,327.1L1140.2,328.5L1149.2,329.4L1158.2,329.4L1167.1,328.4L1176.0,326.8L1184.9,325.7L1193.9,325.3L1202.9,325.0L1211.9,325.3" fill="none" stroke="rgba(255,255,255,1)" stroke-opacity="0.09" stroke-width="0.7"/><path d="M448.1,158.7L451.6,167.0L455.6,175.0L460.1,182.8L464.9,190.5L469.9,197.9L474.8,205.5L479.2,213.3L482.7,221.6L484.7,230.4L484.6,239.4L482.3,248.1L478.2,256.1L472.9,263.4L466.9,270.1L460.4,276.3L453.4,282.0L446.2,287.4L438.6,292.2L430.7,296.4L422.2,299.6L413.4,301.3L404.4,301.6L395.5,300.5L386.7,298.5L378.1,295.9L369.6,293.0L361.2,289.8L352.8,286.6L344.3,283.5L335.9,280.4L327.4,277.2L319.0,274.1L310.6,271.0L302.1,267.9L293.6,264.9L285.1,261.9L276.6,259.1L268.0,256.3L259.4,253.7L250.8,251.2L242.1,248.9L233.3,247.0L224.4,245.4L215.5,244.4L206.5,243.9L197.5,244.4L189.5,248.5L192.1,257.1L183.1,256.1L187.1,264.2L178.1,264.8L182.2,272.9L174.8,278.0L178.8,286.1L176.9,294.9L177.2,303.9L174.5,312.5L172.6,321.3L169.1,329.5L164.9,337.5L160.1,345.1L154.9,352.5L149.5,359.6L143.8,366.7" fill="none" stroke="rgba(255,255,255,1)" stroke-opacity="0.06" stroke-width="0.7"/><path d="M811.1,559.3L816.2,551.9L821.0,544.3L825.9,536.7L831.3,529.6L837.7,523.2L845.2,518.2L853.6,515.0L862.4,513.3L871.4,512.8L880.4,513.2L889.3,514.4L898.1,516.5L906.3,520.0L912.8,526.3L911.2,535.2L903.4,539.7L894.9,536.9L895.8,527.9L904.3,524.9L910.4,531.4L904.4,538.1L895.5,536.8L896.0,527.8L904.5,525.0L910.4,531.8L904.2,538.2L895.3,536.6L896.1,527.6L904.7,525.1L910.4,532.0L904.0,538.3L895.2,536.4L896.2,527.5L904.9,525.2L910.4,532.3L903.8,538.4L895.1,536.3L896.3,527.4L905.0,525.2L910.4,532.4L903.7,538.4L895.0,536.2L896.3,527.3L905.1,525.2L910.4,532.5L903.6,538.4L894.9,536.1L896.4,527.2L905.2,525.3L910.4,532.6L903.6,538.5L894.9,536.0L896.4,527.2L905.2,525.3L910.4,532.7L903.5,538.5L894.9,536.0L896.4,527.1L905.3,525.3L910.4,532.7L903.5,538.5L894.8,535.9L896.5,527.1L905.3,525.3" fill="none" stroke="rgba(255,255,255,1)" stroke-opacity="0.05" stroke-width="0.7"/><path d="M1146.5,499.4L1148.7,508.1L1147.7,517.1L1141.8,523.9L1133.1,526.2L1124.2,524.9L1116.0,521.2L1109.1,515.4L1111.0,506.6L1117.4,513.0L1119.8,521.7L1111.9,517.3L1106.8,509.9L1114.5,514.5L1116.0,523.4L1109.3,517.4L1106.0,509.0L1113.6,513.8L1118.8,521.1L1111.1,516.6L1107.3,508.4L1114.6,513.7L1118.5,521.8L1111.0,516.9L1107.0,508.8L1114.4,513.9L1118.2,522.1L1110.8,517.0L1106.9,508.9L1114.3,513.9L1118.3,522.0L1110.8,517.0L1106.9,508.9L1114.3,513.9L1118.3,522.0L1110.8,516.9L1106.9,508.9L1114.3,513.9L1118.3,522.0L1110.8,516.9L1106.9,508.9L1114.3,513.9L1118.3,522.0L1110.8,516.9L1106.9,508.9L1114.3,513.9L1118.3,522.0L1110.8,516.9L1106.9,508.9L1114.3,513.9L1118.3,522.0L1110.8,516.9L1106.9,508.9L1114.3,513.9L1118.3,522.0L1110.8,516.9L1106.9,508.9L1114.3,513.9L1118.3,522.0L1110.8,516.9L1106.9,508.9L1114.3,513.9L1118.3,522.0L1110.8,516.9L1106.9,508.9" fill="none" stroke="rgba(255,255,255,1)" stroke-opacity="0.11" stroke-width="0.7"/><path d="M208.4,389.4L208.5,380.4L208.6,371.4L208.7,362.4L208.5,353.4L207.6,344.5L205.5,335.7L201.8,327.5L196.6,320.1L190.0,314.1L182.1,309.8L173.1,310.5L173.5,319.4L169.9,327.7L165.9,335.8L161.2,343.5L156.1,350.9L150.7,358.0L145.1,365.1L139.4,372.1L133.8,379.1L128.4,386.3L123.3,393.7L118.8,401.5L115.0,409.7L112.2,418.2L110.7,427.1L110.5,436.1L111.6,445.0L113.7,453.8L116.4,462.4L119.5,470.8L122.6,479.3L125.5,487.8L128.1,496.4L130.3,505.1L131.9,514.0L132.9,522.9L133.2,531.9L133.0,540.9L132.2,549.9L131.2,558.8L130.1,567.7L129.0,576.7" fill="none" stroke="rgba(255,255,255,1)" stroke-opacity="0.05" stroke-width="0.7"/><path d="M895.4,16.2L887.5,20.5L879.8,25.3L872.4,30.3L864.9,35.4L857.3,40.2L849.5,44.7L841.5,48.7L833.2,52.3L824.8,55.4L816.1,57.9L807.3,59.6L798.3,60.2L789.4,59.1L781.1,55.6L774.9,49.1L772.1,40.5L772.8,31.6L776.5,23.3L783.3,17.4L780.4,26.0L772.6,21.4L779.9,16.2L786.1,22.8L779.4,28.9L775.7,20.7L783.5,16.3L780.9,25.0L772.0,25.9L778.0,19.2L787.0,18.3L781.7,25.6L773.0,27.7L778.2,20.4L787.0,18.6L781.7,25.8L772.8,27.5L778.2,20.2L787.1,18.6L781.7,25.8L772.9,27.5L778.2,20.2L787.1,18.6L781.7,25.8L772.9,27.5L778.2,20.2L787.1,18.6L781.7,25.8L772.9,27.5L778.2,20.2L787.1,18.6L781.7,25.8L772.9,27.5L778.2,20.2L787.1,18.6L781.7,25.8L772.9,27.5L778.2,20.2L787.1,18.6L781.7,25.8L772.9,27.5L778.2,20.2L787.1,18.6L781.7,25.8L772.9,27.5" fill="none" stroke="rgba(255,255,255,1)" stroke-opacity="0.08" stroke-width="0.7"/><path d="M503.2,269.0L497.2,275.7L490.9,282.1L484.4,288.4L478.0,294.7L471.8,301.2L466.0,308.1L460.8,315.4L456.7,323.4L455.6,332.3L461.1,339.5L469.1,343.7L477.4,346.9L486.0,349.7L494.7,352.0L503.5,354.0L512.3,355.7L521.2,357.2L530.1,358.5L539.0,359.6L548.0,360.6L557.0,361.4L565.9,362.1L574.9,362.6L583.9,363.1L592.9,363.5L601.9,363.8L610.9,364.2L619.9,364.4L628.9,364.3L637.9,363.7L646.7,362.3L655.1,359.0L660.6,351.8L658.4,343.1L652.5,336.3L645.5,341.9L654.3,343.8L656.7,335.1L647.7,335.2L651.0,343.5L659.5,340.5L651.8,335.9L646.4,343.0L655.4,343.9L654.7,335.0L646.0,337.0L652.5,343.1L659.4,337.3L650.8,334.8L647.3,343.1L656.3,343.6L653.1,335.2L645.3,339.6L653.5,343.3L657.9,335.4L648.9,334.6L649.4,343.6L658.4,342.4L652.0,336.1L646.3,343.0L655.2,344.0L655.1,335.0L646.2,336.6L652.3,343.2" fill="none" stroke="rgba(255,255,255,1)" stroke-opacity="0.05" stroke-width="0.7"/><path d="M840.9,226.2L845.7,233.9L853.6,238.0L862.5,239.7L871.4,240.8L880.4,241.8L889.3,242.8L898.2,244.1L907.1,245.5L915.9,247.2L924.7,249.2L933.4,251.5L942.1,254.0L950.6,256.8L959.1,259.8L967.6,262.9L976.0,266.0L984.4,269.2L992.8,272.6L1001.1,276.0L1009.4,279.5L1017.6,283.2L1025.7,287.0L1033.8,290.9L1041.9,294.9L1050.0,298.8L1058.1,302.7L1066.3,306.4L1074.6,309.9L1083.0,313.2L1091.5,316.2L1100.0,319.0L1108.7,321.6L1117.4,323.9L1126.1,326.0L1134.9,327.7L1143.9,329.0L1152.8,329.5L1161.8,329.1L1170.7,327.7L1179.6,326.2L1188.6,325.5L1197.6,325.1L1206.6,325.2L1215.6,325.0" fill="none" stroke="rgba(255,255,255,1)" stroke-opacity="0.10" stroke-width="0.7"/><path d="M652.9,336.4L645.1,340.9L653.7,343.6L657.7,335.5L648.7,334.7L649.8,343.6L658.7,342.1L652.0,336.1L646.3,343.1L655.3,344.0L655.0,335.0L646.1,336.7L652.4,343.1L659.5,337.6L651.0,334.9L647.1,343.0L656.1,343.6L653.3,335.1L645.3,339.1L653.3,343.2L658.2,335.6L649.3,334.5L649.0,343.5L658.0,342.7L652.0,336.0L646.1,342.7L655.0,343.9L655.3,334.9L646.4,336.3L652.2,343.2L659.7,338.3L651.3,335.1L646.9,342.9L655.8,343.7L653.8,335.0L645.4,338.3L653.0,343.1L658.7,336.1L649.8,334.5L648.3,343.4L657.3,343.2L652.3,335.7L645.7,341.8L654.5,343.7L656.1,334.9L647.1,335.5L651.5,343.4L659.7,339.7L651.7,335.6L646.5,342.9L655.4,343.9L654.5,334.9L645.8,337.3L652.7,343.1L659.3,337.0L650.6,334.7L647.5,343.1L656.5,343.5L652.9,335.3L645.3,340.1L653.7,343.3L657.5,335.2L648.5,334.7L649.9,343.6L658.8,341.9" fill="none" stroke="rgba(255,255,255,1)" stroke-opacity="0.10" stroke-width="0.7"/><path d="M232.3,74.2L225.2,79.7L218.2,85.4L211.2,91.1L204.0,96.4L196.3,101.2L188.2,105.1L179.7,108.1L170.9,109.7L161.9,109.7L153.0,108.2L144.4,105.5L136.1,102.2L127.8,98.5L119.7,94.6L111.6,90.7L103.5,86.8L95.5,82.7L87.7,78.3L80.0,73.5L72.8,68.2L66.0,62.2L60.0,55.6L54.8,48.2L50.9,40.1L48.2,31.5L46.9,22.6L46.7,13.6L47.5,4.6L49.0,-4.3L50.8,-13.1" fill="none" stroke="rgba(255,255,255,1)" stroke-opacity="0.06" stroke-width="0.7"/><path d="M869.4,74.3L860.7,76.6L851.8,78.2L842.9,79.2L833.9,80.0L824.9,80.6L816.0,80.9L807.0,80.5L798.1,79.1L789.5,76.3L781.8,71.7L775.5,65.2L771.2,57.3L769.1,48.6L769.2,39.6L771.6,30.9L776.0,23.0L782.9,17.3L780.6,26.0L772.3,22.5L779.3,16.9L787.1,21.4L780.9,27.9L772.7,24.2L779.3,18.0L787.4,21.9L781.0,28.2L772.8,24.5L779.2,18.3L787.5,21.8L781.1,28.1L772.7,25.0L778.9,18.6L787.6,20.9L781.5,27.5L772.6,26.3L778.4,19.5L787.4,19.2L781.8,26.3L772.9,27.5L778.2,20.3L787.1,18.6L781.7,25.9L772.9,27.5L778.2,20.2L787.1,18.6L781.7,25.8L772.9,27.5L778.2,20.2L787.1,18.6L781.7,25.8L772.9,27.5L778.2,20.2L787.1,18.6L781.7,25.8L772.9,27.5L778.2,20.2L787.1,18.6L781.7,25.8L772.9,27.5L778.2,20.2L787.1,18.6L781.7,25.8L772.9,27.5L778.2,20.2" fill="none" stroke="rgba(255,255,255,1)" stroke-opacity="0.09" stroke-width="0.7"/><path d="M398.2,53.8L406.7,50.9L414.9,47.2L422.8,42.9L430.7,38.6L438.9,34.9L447.5,32.2L456.4,30.8L465.4,30.5L474.4,30.9L483.3,31.5L492.3,32.1L501.3,32.5L510.3,32.7L519.3,32.5L528.3,31.9L537.1,30.2L544.1,24.6L539.9,16.6L543.4,8.3L539.5,0.2L544.0,-7.6L539.4,-15.4" fill="none" stroke="rgba(255,255,255,1)" stroke-opacity="0.12" stroke-width="0.7"/><path d="M600.9,46.4L595.4,53.5L598.9,61.8L604.6,68.8L610.9,75.3L617.5,81.4L624.4,87.1L631.7,92.4L639.4,97.0L647.7,100.5L656.6,101.9L665.5,100.5L673.2,95.8L679.3,89.2L684.2,81.7L688.4,73.7L692.3,65.6L696.2,57.5L700.5,49.5L705.2,41.9L710.6,34.7L716.7,28.0L723.2,21.8L730.1,16.1L737.3,10.6L744.6,5.4L752.2,0.5L759.9,-4.1L767.9,-8.2L776.3,-11.3L785.2,-9.6L784.0,-0.7L784.0,8.3L783.3,17.3L780.5,25.8L772.3,22.2L779.4,16.7L787.0,21.5L780.7,28.0L772.9,23.6L779.6,17.6L786.9,22.9L780.2,28.9L774.0,22.4L781.1,16.9L783.2,25.7L775.1,29.5L778.6,21.2L787.3,19.1L781.8,26.2L772.9,27.5L778.2,20.2L787.1,18.6L781.7,25.9L772.9,27.5L778.2,20.3L787.1,18.6L781.7,25.8L772.9,27.5L778.2,20.2L787.1,18.6L781.7,25.8L772.9,27.5L778.2,20.2L787.1,18.6" fill="none" stroke="rgba(255,255,255,1)" stroke-opacity="0.05" stroke-width="0.7"/><path d="M699.6,48.2L704.5,40.7L710.0,33.5L716.1,26.9L722.7,20.8L729.6,15.1L736.8,9.7L744.2,4.5L751.7,-0.4L759.5,-5.0L767.4,-9.2L775.8,-12.3L784.8,-11.2L783.9,-2.3L784.0,6.7L783.5,15.7L781.2,24.4L772.9,27.7L778.1,20.4L786.9,18.4L781.6,25.7L772.8,27.4L778.2,20.2L787.0,18.6L781.7,25.8L772.9,27.5L778.2,20.3L787.1,18.6L781.7,25.8L772.9,27.5L778.2,20.2L787.1,18.6L781.7,25.8L772.9,27.5L778.2,20.2L787.1,18.6L781.7,25.8L772.9,27.5L778.2,20.2L787.1,18.6L781.7,25.8L772.9,27.5L778.2,20.2L787.1,18.6L781.7,25.8L772.9,27.5L778.2,20.2L787.1,18.6L781.7,25.8L772.9,27.5L778.2,20.2L787.1,18.6L781.7,25.8L772.9,27.5L778.2,20.2L787.1,18.6L781.7,25.8L772.9,27.5L778.2,20.2L787.1,18.6L781.7,25.8L772.9,27.5L778.2,20.2L787.1,18.6L781.7,25.8" fill="none" stroke="#6366f1" stroke-opacity="0.50" stroke-width="1.1"/><path d="M1081.4,7.4L1090.0,9.8L1098.7,12.2L1107.4,14.7L1115.9,17.4L1124.4,20.4L1132.7,23.9L1140.8,27.9L1148.5,32.6L1155.6,38.2L1161.7,44.7L1166.6,52.3L1169.6,60.8L1170.8,69.7L1170.4,78.7L1168.9,87.6L1166.9,96.3L1165.0,105.1L1163.9,114.1L1164.2,123.1L1166.3,131.8L1170.1,139.9L1175.4,147.3L1181.7,153.7L1188.8,159.2L1196.4,163.9L1204.5,168.0L1212.7,171.6" fill="none" stroke="rgba(255,255,255,1)" stroke-opacity="0.07" stroke-width="0.7"/><path d="M1175.7,22.3L1181.6,29.0L1186.7,36.5L1190.7,44.5L1193.2,53.2L1194.0,62.2L1193.4,71.1L1191.7,80.0L1189.1,88.6L1186.3,97.1L1183.4,105.7L1181.1,114.4L1179.8,123.3L1180.2,132.3L1182.8,140.9L1187.5,148.5L1193.7,155.1L1200.9,160.5L1208.7,165.0L1216.8,168.9" fill="none" stroke="rgba(255,255,255,1)" stroke-opacity="0.10" stroke-width="0.7"/><path d="M412.6,76.0L420.8,72.3L426.5,65.3L430.9,57.5L436.0,50.1L442.4,43.7L450.0,39.0L458.5,36.0L467.4,34.5L476.4,34.0L485.4,33.9L494.4,33.9L503.4,33.8L512.4,33.6L521.4,33.1L530.3,32.1L539.0,29.9L544.0,22.3L539.8,14.3L543.5,6.1L539.5,-1.9L544.1,-9.6L539.4,-17.3" fill="none" stroke="rgba(255,255,255,1)" stroke-opacity="0.07" stroke-width="0.7"/><path d="M572.8,261.8L570.7,270.5L567.8,279.0L564.5,287.4L561.2,295.8L558.4,304.3L556.4,313.1L556.4,322.1L559.5,330.6L565.7,337.1L573.5,341.7L581.8,345.0L590.4,347.6L599.2,349.8L608.0,351.5L616.9,353.0L625.8,354.0L634.8,354.6L643.8,354.5L652.6,352.7L659.5,347.0L655.6,338.9L647.2,335.7L651.8,343.5L659.7,339.2L651.6,335.4L646.6,342.9L655.6,343.8L654.2,334.9L645.6,337.6L652.8,343.1L659.1,336.7L650.4,334.6L647.8,343.2L656.8,343.4L652.7,335.4L645.4,340.7L653.9,343.5L657.0,335.0L648.0,334.9L650.5,343.6L659.2,341.3L651.9,336.0L646.4,343.1L655.3,344.0L654.8,335.0L646.0,336.9L652.5,343.1L659.5,337.4L650.9,334.8L647.2,343.0L656.2,343.6L653.2,335.1L645.3,339.4L653.4,343.2L658.0,335.5L649.1,334.5L649.3,343.5L658.2,342.5L652.0,336.0L646.2,342.9L655.1,344.0L655.1,335.0L646.3,336.5L652.3,343.2" fill="none" stroke="rgba(255,255,255,1)" stroke-opacity="0.09" stroke-width="0.7"/><path d="M796.0,198.5L799.2,207.0L802.3,215.4L806.0,223.6L811.3,230.8L818.9,235.7L827.6,238.1L836.5,239.5L845.4,240.2L854.4,240.6L863.4,241.0L872.4,241.5L881.4,242.3L890.3,243.3L899.2,244.5L908.1,245.9L917.0,247.6L925.7,249.6L934.4,251.9L943.1,254.5L951.6,257.3L960.1,260.3L968.5,263.4L977.0,266.5L985.4,269.8L993.7,273.1L1002.1,276.5L1010.3,280.1L1018.5,283.8L1026.7,287.6L1034.8,291.5L1042.9,295.5L1051.0,299.4L1059.1,303.2L1067.3,306.9L1075.6,310.4L1084.0,313.6L1092.5,316.6L1101.1,319.4L1109.7,321.9L1118.4,324.2L1127.2,326.3L1136.0,327.9L1144.9,329.1L1153.9,329.5L1162.9,329.0L1171.8,327.5L1180.7,326.1L1189.7,325.5L1198.6,325.1L1207.6,325.2L1216.6,324.9" fill="none" stroke="rgba(255,255,255,1)" stroke-opacity="0.05" stroke-width="0.7"/><path d="M527.8,402.4L536.8,402.5L545.8,402.7L554.8,403.0L563.8,403.5L572.8,404.0L581.8,404.7L590.7,405.5L599.7,406.4L608.6,407.4L617.6,408.3L626.6,409.1L635.6,409.4L644.5,408.9L653.3,406.7L660.6,401.4L663.6,392.9L663.6,383.9L663.1,375.0L662.7,366.0L662.2,357.0L660.4,348.2L656.5,340.1L648.9,335.3L650.6,344.1L659.2,341.4L651.9,336.1L646.3,343.1L655.3,344.0L655.0,335.0L646.1,336.7L652.4,343.1L659.5,337.7L651.0,334.9L647.1,343.0L656.1,343.6L653.4,335.1L645.3,339.1L653.3,343.2L658.2,335.6L649.3,334.5L649.0,343.5L658.0,342.7L652.1,336.0L646.1,342.7L655.0,343.9L655.3,334.9L646.4,336.3L652.1,343.2L659.7,338.3L651.3,335.1L646.9,342.9L655.8,343.7L653.8,335.0L645.4,338.3L653.0,343.1L658.7,336.1L649.9,334.5L648.3,343.4L657.3,343.2L652.3,335.7L645.7,341.8L654.5,343.7L656.1,334.9L647.1,335.5" fill="none" stroke="rgba(255,255,255,1)" stroke-opacity="0.07" stroke-width="0.7"/><path d="M811.7,44.0L803.3,47.3L794.5,49.3L785.5,49.1L777.5,45.1L773.5,37.0L774.6,28.1L779.1,20.3L788.0,21.5L781.7,27.9L772.8,26.8L778.4,19.8L787.4,19.1L781.8,26.2L772.9,27.5L778.2,20.3L787.1,18.6L781.7,25.9L772.9,27.5L778.2,20.2L787.1,18.6L781.7,25.8L772.9,27.5L778.2,20.2L787.1,18.6L781.7,25.8L772.9,27.5L778.2,20.2L787.1,18.6L781.7,25.8L772.9,27.5L778.2,20.2L787.1,18.6L781.7,25.8L772.9,27.5L778.2,20.2L787.1,18.6L781.7,25.8L772.9,27.5L778.2,20.2L787.1,18.6L781.7,25.8L772.9,27.5L778.2,20.2L787.1,18.6L781.7,25.8L772.9,27.5L778.2,20.2L787.1,18.6L781.7,25.8L772.9,27.5L778.2,20.2L787.1,18.6L781.7,25.8L772.9,27.5L778.2,20.2L787.1,18.6L781.7,25.8L772.9,27.5L778.2,20.2L787.1,18.6L781.7,25.8L772.9,27.5L778.2,20.2L787.1,18.6" fill="none" stroke="rgba(255,255,255,1)" stroke-opacity="0.10" stroke-width="0.7"/><path d="M536.0,400.6L545.0,400.8L554.0,401.2L563.0,401.6L572.0,402.1L581.0,402.7L590.0,403.5L598.9,404.3L607.9,405.1L616.8,406.0L625.8,406.6L634.8,406.9L643.8,406.4L652.6,404.3L660.0,399.2L663.3,390.9L663.4,381.9L663.0,372.9L662.7,363.9L662.0,354.9L659.7,346.2L655.2,338.4L646.5,336.2L652.1,343.2L659.7,338.5L651.4,335.2L646.8,342.9L655.7,343.8L653.9,334.9L645.5,338.1L653.0,343.1L658.9,336.3L650.0,334.5L648.1,343.3L657.1,343.3L652.4,335.6L645.6,341.5L654.3,343.6L656.4,334.9L647.4,335.3L651.2,343.5L659.6,340.3L651.8,335.8L646.4,343.0L655.4,343.9L654.7,334.9L645.9,337.0L652.6,343.1L659.4,337.2L650.8,334.7L647.4,343.1L656.3,343.6L653.1,335.2L645.3,339.7L653.5,343.3L657.8,335.3L648.8,334.6L649.6,343.6L658.5,342.3L652.0,336.1L646.3,343.1L655.2,344.0L655.0,335.0L646.2,336.6L652.4,343.2" fill="none" stroke="rgba(255,255,255,1)" stroke-opacity="0.09" stroke-width="0.7"/><path d="M255.1,373.5L256.0,364.6L256.7,355.6L256.6,346.6L255.5,337.7L253.0,329.0L248.9,321.0L243.4,313.9L236.9,307.7L229.7,302.2L222.1,297.5L214.2,293.2L206.0,289.4L197.6,286.0L189.1,283.3L180.1,282.3L175.5,290.0L178.3,298.6L175.1,307.0L174.6,315.9L171.2,324.3L167.6,332.5L163.2,340.4L158.2,347.9L152.9,355.1L147.4,362.2L141.7,369.2L136.1,376.2L130.6,383.3L125.3,390.7L120.6,398.3L116.4,406.3L113.2,414.7L111.1,423.5L110.4,432.4L111.0,441.4L112.7,450.2L115.2,458.9L118.2,467.4L121.3,475.8L124.3,484.3L127.1,492.9L129.5,501.5L131.4,510.3L132.6,519.3L133.2,528.2L133.1,537.2L132.6,546.2L131.6,555.2L130.5,564.1L129.4,573.0" fill="none" stroke="rgba(255,255,255,1)" stroke-opacity="0.11" stroke-width="0.7"/><path d="M826.5,241.2L835.5,240.8L844.5,240.8L853.5,240.9L862.5,241.1L871.5,241.6L880.5,242.3L889.4,243.2L898.3,244.4L907.2,245.8L916.1,247.5L924.9,249.4L933.6,251.7L942.2,254.2L950.8,257.0L959.2,260.0L967.7,263.1L976.1,266.3L984.5,269.5L992.9,272.8L1001.2,276.2L1009.5,279.8L1017.7,283.5L1025.9,287.3L1034.0,291.2L1042.1,295.1L1050.1,299.0L1058.3,302.9L1066.5,306.6L1074.8,310.1L1083.2,313.4L1091.7,316.4L1100.2,319.1L1108.8,321.7L1117.5,324.0L1126.3,326.1L1135.1,327.8L1144.0,329.0L1153.0,329.5L1162.0,329.1L1170.9,327.7L1179.8,326.2L1188.8,325.5L1197.8,325.1L1206.8,325.2L1215.8,325.0" fill="none" stroke="rgba(255,255,255,1)" stroke-opacity="0.05" stroke-width="0.7"/><path d="M1024.1,75.9L1032.9,77.9L1041.7,75.8L1049.8,72.0L1057.6,67.5L1065.3,62.9L1073.2,58.5L1081.3,54.6L1089.6,51.1L1098.2,48.4L1107.0,46.5L1115.9,45.6L1124.9,46.0L1133.8,47.7L1142.1,51.0L1149.5,56.2L1155.2,63.2L1158.6,71.5L1159.8,80.4L1159.5,89.4L1158.5,98.4L1157.8,107.3L1158.1,116.3L1160.0,125.1L1163.3,133.5L1167.9,141.2L1173.5,148.3L1180.0,154.5L1187.2,159.9L1195.0,164.5L1203.0,168.5L1211.3,172.0L1219.7,175.2" fill="none" stroke="rgba(255,255,255,1)" stroke-opacity="0.04" stroke-width="0.7"/><path d="M325.3,392.5L320.7,384.8L316.6,376.8L313.0,368.5L309.7,360.2L306.3,351.8L302.5,343.7L298.3,335.7L293.3,328.2L287.7,321.2L281.4,314.8L274.6,308.9L267.3,303.6L259.7,298.8L251.8,294.4L243.8,290.3L235.7,286.4L227.5,282.7L219.2,279.2L210.9,275.7L202.5,272.5L194.0,269.6L185.2,267.5L176.4,269.3L180.5,277.3L175.3,284.7L178.7,293.1L176.0,301.6L176.1,310.6L172.8,319.0L170.0,327.6L166.0,335.6L161.3,343.3L156.2,350.7L150.8,357.9L145.2,365.0L139.5,371.9L133.9,379.0L128.5,386.2L123.4,393.6L118.9,401.4L115.1,409.5L112.3,418.1L110.7,426.9L110.5,435.9L111.5,444.9L113.6,453.6L116.4,462.2L119.4,470.7L122.5,479.1L125.5,487.6L128.1,496.2L130.3,504.9L131.9,513.8L132.9,522.7L133.2,531.7L133.0,540.7L132.2,549.7L131.2,558.6L130.1,567.6L129.0,576.5" fill="none" stroke="rgba(255,255,255,1)" stroke-opacity="0.06" stroke-width="0.7"/><path d="M1064.6,32.5L1073.6,32.7L1082.6,32.8L1091.6,32.8L1100.6,33.1L1109.6,33.7L1118.5,34.9L1127.3,36.9L1135.8,39.8L1143.9,43.8L1151.1,49.1L1157.1,55.8L1161.2,63.8L1163.1,72.6L1163.3,81.6L1162.3,90.5L1160.9,99.4L1159.8,108.4L1159.9,117.4L1161.6,126.2L1164.9,134.6L1169.5,142.3L1175.2,149.3L1181.8,155.4L1189.1,160.7L1196.9,165.2L1205.0,169.0L1213.3,172.5" fill="none" stroke="rgba(255,255,255,1)" stroke-opacity="0.06" stroke-width="0.7"/><path d="M123.3,300.9L129.9,307.0L135.9,313.7L140.6,321.4L143.4,330.0L143.5,339.0L141.1,347.6L137.1,355.7L132.3,363.3L127.1,370.7L121.7,377.9L116.4,385.2L111.4,392.6L106.7,400.3L102.7,408.3L99.5,416.8L97.6,425.6L97.1,434.6L98.1,443.5L100.2,452.3L103.0,460.8L106.1,469.2L109.3,477.7L112.3,486.1L115.1,494.7L117.4,503.4L119.1,512.2L120.4,521.2L121.0,530.1L121.0,539.1L120.6,548.1L119.9,557.1L119.0,566.1L118.1,575.0" fill="none" stroke="rgba(255,255,255,1)" stroke-opacity="0.12" stroke-width="0.7"/><path d="M129.0,223.3L137.6,220.9L146.2,218.2L154.8,215.6L163.5,213.1L172.3,211.4L181.3,210.8L190.3,211.7L198.9,214.4L206.9,218.5L214.0,224.0L219.6,231.0L220.4,240.0L211.6,241.9L202.7,243.1L193.9,245.3L190.6,253.7L181.6,254.3L188.4,260.3L179.4,260.5L184.4,268.0L175.8,270.7L180.0,278.7L175.7,286.6L178.6,295.1L175.6,303.6L175.6,312.6L172.3,320.9L169.2,329.4L165.0,337.3L160.2,345.0L155.0,352.3L149.6,359.5L143.9,366.5L138.3,373.5L132.7,380.5L127.3,387.8L122.4,395.3L118.0,403.1L114.4,411.4L111.8,420.0L110.5,428.9L110.6,437.9L111.9,446.8L114.2,455.5L117.0,464.1L120.1,472.5L123.2,481.0L126.1,489.5L128.6,498.1L130.7,506.9L132.2,515.8L133.0,524.7L133.2,533.7L132.8,542.7L132.0,551.7L131.0,560.6L129.8,569.5L128.8,578.5" fill="none" stroke="rgba(255,255,255,1)" stroke-opacity="0.08" stroke-width="0.7"/><path d="M554.7,46.8L548.5,53.4L555.5,59.1L561.4,65.9L567.7,72.4L574.1,78.6L580.6,84.8L587.3,90.9L593.9,96.9L600.6,103.0L607.4,108.9L614.4,114.5L621.8,119.7L629.6,124.1L637.9,127.6L646.7,129.7L655.7,130.3L664.6,129.0L673.0,125.9L680.5,120.8L686.6,114.3L691.4,106.6L695.0,98.4L698.0,89.9L700.6,81.3L703.3,72.7L706.2,64.2L709.7,55.9L713.9,47.9L718.8,40.3L724.3,33.3L730.5,26.7L737.1,20.6L744.1,14.9L751.4,9.6L758.9,4.8L766.8,0.5L775.2,-2.8L784.2,-2.4L783.9,6.6L783.5,15.6L781.3,24.3L773.0,27.9L778.2,20.5L786.9,18.4L781.6,25.7L772.8,27.4L778.2,20.2L787.1,18.6L781.7,25.8L772.9,27.5L778.2,20.3L787.1,18.6L781.7,25.8L772.9,27.5L778.2,20.2L787.1,18.6L781.7,25.8L772.9,27.5L778.2,20.2L787.1,18.6L781.7,25.8L772.9,27.5L778.2,20.2L787.1,18.6" fill="none" stroke="rgba(255,255,255,1)" stroke-opacity="0.10" stroke-width="0.7"/><path d="M522.0,396.7L531.0,396.9L540.0,397.2L549.0,397.5L558.0,397.9L567.0,398.3L575.9,398.8L584.9,399.3L593.9,400.0L602.9,400.6L611.8,401.3L620.8,401.9L629.8,402.3L638.8,402.0L647.7,400.8L656.1,397.4L661.9,390.5L663.1,381.6L662.9,372.6L662.7,363.6L661.9,354.7L659.6,346.0L655.0,338.3L646.2,336.4L652.2,343.1L659.7,338.2L651.3,335.1L646.8,342.9L655.8,343.7L653.8,335.0L645.4,338.3L653.0,343.1L658.7,336.1L649.9,334.5L648.3,343.4L657.3,343.2L652.3,335.7L645.7,341.8L654.5,343.7L656.1,334.9L647.1,335.5L651.5,343.4L659.7,339.7L651.7,335.6L646.5,342.9L655.4,343.9L654.5,334.9L645.8,337.2L652.6,343.1L659.3,337.0L650.6,334.7L647.5,343.1L656.5,343.5L652.9,335.3L645.3,340.1L653.7,343.3L657.5,335.2L648.5,334.7L649.9,343.6L658.8,342.0L651.9,336.1L646.3,343.2L655.3,344.0L654.9,335.0L646.1,336.8" fill="none" stroke="rgba(255,255,255,1)" stroke-opacity="0.09" stroke-width="0.7"/><path d="M278.5,475.4L275.5,466.9L272.9,458.3L270.7,449.6L268.8,440.7L267.4,431.9L266.3,422.9L265.6,414.0L265.3,405.0L265.2,396.0L265.4,387.0L265.8,378.0L266.2,369.0L266.5,360.0L266.4,351.0L265.4,342.0L263.3,333.3L259.7,325.1L254.7,317.6L248.6,310.9L241.7,305.1L234.3,300.0L226.6,295.4L218.6,291.3L210.4,287.5L202.1,284.1L193.6,281.1L184.9,279.0L176.0,280.4L178.8,288.9L176.5,297.6L176.9,306.5L173.9,315.0L171.7,323.8L167.9,331.9L163.6,339.8L158.6,347.3L153.3,354.6L147.8,361.7L142.2,368.7L136.5,375.7L131.0,382.8L125.7,390.1L120.9,397.7L116.7,405.7L113.4,414.1L111.2,422.8L110.4,431.8L110.9,440.8L112.6,449.6L115.0,458.2L118.0,466.7L121.1,475.2L124.1,483.7L126.9,492.2L129.3,500.9L131.2,509.7L132.5,518.6L133.2,527.6L133.2,536.6L132.6,545.6L131.7,554.5L130.6,563.4L129.5,572.4" fill="none" stroke="rgba(255,255,255,1)" stroke-opacity="0.09" stroke-width="0.7"/><path d="M822.0,291.2L828.8,285.3L835.8,279.7L843.0,274.2L850.2,268.8L857.6,263.7L865.4,259.2L873.6,255.5L882.2,252.9L891.1,251.6L900.1,251.3L909.1,251.9L918.0,253.0L926.9,254.8L935.6,256.9L944.2,259.4L952.8,262.3L961.2,265.3L969.7,268.5L978.1,271.7L986.5,274.9L994.8,278.3L1003.1,281.7L1011.4,285.3L1019.6,289.0L1027.8,292.8L1035.9,296.6L1044.1,300.4L1052.3,304.1L1060.5,307.7L1068.9,311.1L1077.3,314.3L1085.8,317.2L1094.4,319.9L1103.0,322.3L1111.8,324.6L1120.5,326.6L1129.4,328.2L1138.3,329.5L1147.3,330.1L1156.3,329.9L1165.2,328.8L1174.0,327.1L1183.0,325.9L1191.9,325.4L1200.9,325.0L1209.9,325.3L1218.9,324.8" fill="none" stroke="rgba(255,255,255,1)" stroke-opacity="0.11" stroke-width="0.7"/><path d="M205.8,193.5L213.4,198.4L220.5,204.0L227.0,210.1L233.0,216.8L238.2,224.2L241.5,232.6L237.3,240.5L228.3,241.5L219.3,242.0L210.4,242.5L201.4,243.4L192.7,245.9L192.2,254.8L183.3,254.2L189.0,261.1L180.1,260.8L184.2,268.8L175.7,271.5L179.8,279.6L175.9,287.7L178.5,296.3L175.5,304.8L175.3,313.8L171.9,322.1L168.6,330.5L164.4,338.4L159.5,346.0L154.3,353.3L148.8,360.4L143.2,367.5L137.5,374.5L131.9,381.5L126.6,388.8L121.7,396.3L117.4,404.2L113.9,412.5L111.5,421.2L110.4,430.2L110.7,439.1L112.2,448.0L114.5,456.7L117.4,465.2L120.6,473.7L123.6,482.1L126.5,490.7L128.9,499.3L130.9,508.1L132.4,517.0L133.1,526.0L133.2,535.0L132.7,544.0L131.9,552.9L130.8,561.8L129.7,570.8L128.6,579.7" fill="none" stroke="rgba(255,255,255,1)" stroke-opacity="0.07" stroke-width="0.7"/><path d="M1039.1,217.7L1046.5,222.9L1053.7,228.2L1061.0,233.5L1068.2,238.9L1075.5,244.2L1082.9,249.3L1090.3,254.4L1097.9,259.3L1105.4,264.1L1113.0,269.0L1120.5,273.9L1128.0,279.0L1135.3,284.2L1142.5,289.6L1149.7,295.1L1156.8,300.6L1163.9,306.2L1171.0,311.6L1178.2,317.0L1185.7,322.0L1193.8,325.9L1202.6,323.7L1211.1,326.5L1218.5,321.3" fill="none" stroke="rgba(255,255,255,1)" stroke-opacity="0.08" stroke-width="0.7"/><path d="M631.5,165.3L640.5,165.5L649.5,165.2L658.5,164.3L667.3,162.8L676.1,160.5L684.5,157.6L692.7,153.8L700.4,149.1L707.5,143.6L713.9,137.2L719.4,130.1L723.9,122.3L727.5,114.1L730.2,105.5L732.2,96.7L733.9,87.9L735.5,79.0L737.3,70.2L739.6,61.5L742.7,53.0L746.5,44.9L751.1,37.1L756.4,29.9L762.5,23.3L769.3,17.4L777.1,12.8L786.0,13.7L782.5,22.0L776.9,29.1L779.0,20.3L788.0,20.9L781.8,27.5L772.8,27.1L778.3,20.0L787.2,18.9L781.8,26.0L772.9,27.5L778.2,20.3L787.1,18.6L781.7,25.8L772.9,27.5L778.2,20.2L787.1,18.6L781.7,25.8L772.9,27.5L778.2,20.2L787.1,18.6L781.7,25.8L772.9,27.5L778.2,20.2L787.1,18.6L781.7,25.8L772.9,27.5L778.2,20.2L787.1,18.6L781.7,25.8L772.9,27.5L778.2,20.2L787.1,18.6L781.7,25.8L772.9,27.5L778.2,20.2L787.1,18.6L781.7,25.8" fill="none" stroke="rgba(255,255,255,1)" stroke-opacity="0.06" stroke-width="0.7"/><path d="M248.5,334.7L245.6,326.2L241.0,318.4L235.2,311.6L228.4,305.7L221.0,300.5L213.2,296.0L205.2,292.0L196.9,288.5L188.3,285.8L179.3,285.0L176.3,293.4L177.8,302.3L174.6,310.7L173.3,319.6L169.8,327.9L165.8,336.0L161.1,343.7L156.0,351.1L150.5,358.2L144.9,365.3L139.3,372.3L133.7,379.3L128.3,386.5L123.2,394.0L118.7,401.7L114.9,409.9L112.1,418.5L110.6,427.3L110.5,436.3L111.6,445.3L113.7,454.0L116.5,462.6L119.6,471.0L122.7,479.5L125.6,488.0L128.2,496.6L130.4,505.3L132.0,514.2L132.9,523.2L133.2,532.1L132.9,541.1L132.2,550.1L131.1,559.1L130.0,568.0L128.9,576.9" fill="none" stroke="#22d3ee" stroke-opacity="0.50" stroke-width="1.1"/><path d="M241.0,377.3L242.1,368.4L243.2,359.4L243.9,350.5L243.6,341.5L242.0,332.6L238.7,324.2L233.8,316.7L227.7,310.1L220.7,304.4L213.2,299.5L205.3,295.2L197.1,291.5L188.5,288.6L179.6,287.5L175.7,295.6L177.5,304.5L174.1,312.8L172.6,321.6L168.9,329.9L164.7,337.8L159.9,345.4L154.7,352.8L149.2,359.9L143.6,366.9L137.9,373.9L132.4,381.0L127.0,388.2L122.1,395.8L117.7,403.6L114.2,411.9L111.7,420.5L110.5,429.5L110.6,438.5L112.0,447.4L114.3,456.1L117.2,464.6L120.3,473.0L123.4,481.5L126.2,490.0L128.8,498.7L130.8,507.4L132.3,516.3L133.1,525.3L133.2,534.3L132.8,543.3L132.0,552.2L130.9,561.2L129.8,570.1L128.7,579.0" fill="none" stroke="rgba(255,255,255,1)" stroke-opacity="0.11" stroke-width="0.7"/><path d="M940.9,313.0L949.9,313.7L958.8,315.0L967.7,316.4L976.6,317.5L985.6,318.5L994.5,319.5L1003.4,320.6L1012.4,321.9L1021.3,323.2L1030.1,324.6L1039.0,326.1L1047.9,327.5L1056.8,329.0L1065.7,330.4L1074.6,331.8L1083.5,333.1L1092.4,334.3L1101.3,335.3L1110.3,336.1L1119.3,336.6L1128.3,336.6L1137.3,336.0L1146.2,334.6L1154.9,332.4L1163.5,329.7L1172.2,327.4L1181.1,326.1L1190.1,325.4L1199.0,325.1L1208.0,325.2L1217.0,325.0" fill="none" stroke="rgba(255,255,255,1)" stroke-opacity="0.08" stroke-width="0.7"/><path d="M273.2,266.2L264.8,263.0L256.4,259.8L247.9,256.8L239.4,253.9L230.8,251.3L222.1,249.0L213.3,247.1L204.4,245.8L195.4,245.5L187.8,250.3L190.9,258.8L182.0,258.0L185.9,266.1L177.0,267.4L181.1,275.4L175.0,282.0L178.7,290.2L176.4,298.9L176.6,307.9L173.6,316.3L171.1,325.0L167.3,333.2L162.8,341.0L157.9,348.5L152.5,355.7L147.0,362.8L141.3,369.8L135.6,376.8L130.2,383.9L125.0,391.3L120.2,398.9L116.2,406.9L113.0,415.4L111.0,424.2L110.4,433.1L111.1,442.1L112.9,450.9L115.5,459.5L118.5,468.0L121.6,476.5L124.6,485.0L127.3,493.5L129.7,502.2L131.5,511.0L132.7,520.0L133.2,528.9L133.1,537.9L132.5,546.9L131.5,555.9L130.4,564.8L129.3,573.7" fill="none" stroke="rgba(255,255,255,1)" stroke-opacity="0.09" stroke-width="0.7"/><path d="M751.6,260.1L744.2,255.1L736.7,250.2L729.3,244.9L722.8,238.7L718.7,230.7L720.4,221.8L726.5,215.2L733.8,210.0L741.8,205.7L750.1,202.3L758.8,199.9L767.7,199.0L776.6,200.2L784.7,204.3L791.1,210.6L796.4,217.9L801.6,225.2L808.0,231.5L816.0,235.7L824.7,237.9L833.6,239.3L842.6,240.1L851.5,240.5L860.5,240.9L869.5,241.4L878.5,242.0L887.5,242.9L896.4,244.1L905.3,245.4L914.1,247.1L922.9,249.0L931.7,251.1L940.3,253.6L948.9,256.4L957.4,259.3L965.8,262.4L974.3,265.5L982.7,268.7L991.1,272.0L999.4,275.4L1007.7,279.0L1015.9,282.6L1024.1,286.4L1032.2,290.3L1040.3,294.2L1048.4,298.2L1056.5,302.0L1064.7,305.8L1072.9,309.3L1081.3,312.6L1089.8,315.7L1098.3,318.5L1106.9,321.1L1115.6,323.5L1124.4,325.7L1133.2,327.5L1142.1,328.8L1151.1,329.5L1160.0,329.3L1169.0,328.1L1177.8,326.5L1186.8,325.6L1195.8,325.2L1204.8,325.1" fill="none" stroke="rgba(255,255,255,1)" stroke-opacity="0.04" stroke-width="0.7"/><path d="M750.0,211.1L758.4,207.9L767.3,206.3L776.3,206.9L784.5,210.4L791.4,216.2L797.4,223.0L803.7,229.4L811.3,234.2L819.8,237.0L828.7,238.7L837.6,239.7L846.6,240.3L855.6,240.7L864.6,241.1L873.6,241.6L882.5,242.4L891.5,243.4L900.4,244.6L909.3,246.1L918.1,247.9L926.9,249.9L935.6,252.2L944.2,254.8L952.7,257.7L961.2,260.7L969.6,263.8L978.1,267.0L986.5,270.2L994.8,273.5L1003.1,277.0L1011.4,280.6L1019.6,284.3L1027.7,288.1L1035.8,292.0L1043.9,296.0L1052.0,299.9L1060.2,303.7L1068.4,307.4L1076.7,310.8L1085.1,314.0L1093.6,317.0L1102.2,319.7L1110.8,322.2L1119.5,324.5L1128.3,326.5L1137.2,328.1L1146.1,329.2L1155.1,329.5L1164.1,328.8L1172.9,327.3L1181.8,326.0L1190.8,325.4L1199.8,325.0L1208.8,325.3L1217.8,324.8" fill="none" stroke="rgba(255,255,255,1)" stroke-opacity="0.05" stroke-width="0.7"/><path d="M569.2,143.5L577.5,146.9L586.0,149.8L594.7,152.3L603.4,154.6L612.2,156.6L621.0,158.3L629.9,159.5L638.9,160.1L647.9,160.2L656.9,159.5L665.8,158.0L674.5,155.8L682.9,152.7L691.0,148.6L698.4,143.6L705.1,137.6L710.9,130.7L715.7,123.1L719.4,114.9L722.3,106.4L724.5,97.7L726.4,88.9L728.2,80.0L730.3,71.3L732.9,62.7L736.1,54.3L740.1,46.2L744.8,38.5L750.2,31.3L756.3,24.7L763.0,18.7L770.3,13.5L778.5,9.8L786.5,14.0L782.6,22.1L776.9,29.0L779.0,20.3L788.0,21.1L781.8,27.6L772.8,27.0L778.3,19.9L787.3,18.9L781.8,26.1L772.9,27.5L778.2,20.3L787.1,18.6L781.7,25.8L772.9,27.5L778.2,20.2L787.1,18.6L781.7,25.8L772.9,27.5L778.2,20.2L787.1,18.6L781.7,25.8L772.9,27.5L778.2,20.2L787.1,18.6L781.7,25.8L772.9,27.5L778.2,20.2L787.1,18.6L781.7,25.8L772.9,27.5" fill="none" stroke="rgba(255,255,255,1)" stroke-opacity="0.11" stroke-width="0.7"/><path d="M1112.0,38.5L1120.9,39.3L1129.8,41.2L1138.2,44.1L1146.1,48.4L1153.0,54.3L1158.1,61.7L1161.0,70.2L1161.9,79.2L1161.4,88.2L1160.2,97.1L1159.1,106.0L1159.0,115.0L1160.4,123.9L1163.4,132.4L1167.7,140.3L1173.2,147.4L1179.6,153.8L1186.7,159.3L1194.4,164.0L1202.4,168.0L1210.7,171.6L1219.1,174.8" fill="none" stroke="rgba(255,255,255,1)" stroke-opacity="0.08" stroke-width="0.7"/><path d="M1050.7,6.4L1059.2,9.5L1067.8,12.1L1076.5,14.4L1085.3,16.4L1094.1,18.4L1102.9,20.3L1111.6,22.4L1120.3,24.9L1128.8,27.8L1137.1,31.3L1145.0,35.6L1152.3,40.9L1158.6,47.2L1163.6,54.8L1166.7,63.2L1167.8,72.1L1167.4,81.1L1165.9,90.0L1164.1,98.8L1162.6,107.7L1162.1,116.7L1163.2,125.6L1166.1,134.1L1170.5,142.0L1176.1,149.0L1182.6,155.2L1189.9,160.5L1197.7,165.0L1205.8,168.9L1214.1,172.4" fill="none" stroke="rgba(255,255,255,1)" stroke-opacity="0.11" stroke-width="0.7"/><path d="M593.6,331.9L600.4,337.8L608.4,342.1L616.8,345.3L625.4,347.7L634.3,349.4L643.2,350.2L652.2,349.4L659.4,344.0L653.6,337.1L644.8,339.2L652.9,343.2L658.9,336.5L650.2,334.6L648.0,343.3L657.0,343.3L652.5,335.5L645.5,341.2L654.2,343.6L656.6,334.9L647.6,335.2L651.0,343.5L659.5,340.6L651.8,335.9L646.4,343.0L655.4,343.9L654.7,335.0L646.0,336.9L652.5,343.1L659.4,337.3L650.8,334.8L647.3,343.1L656.3,343.6L653.1,335.2L645.3,339.5L653.5,343.2L657.9,335.4L648.9,334.6L649.4,343.6L658.3,342.4L652.0,336.1L646.2,343.0L655.2,344.0L655.1,335.0L646.2,336.6L652.3,343.2L659.6,337.8L651.1,334.9L647.1,343.0L656.0,343.7L653.5,335.0L645.3,338.9L653.2,343.2L658.4,335.8L649.4,334.5L648.8,343.5L657.8,342.9L652.1,335.9L646.0,342.5L654.9,343.9L655.5,334.9L646.6,336.1L652.0,343.3L659.7,338.6L651.4,335.2" fill="none" stroke="rgba(255,255,255,1)" stroke-opacity="0.10" stroke-width="0.7"/><path d="M397.3,46.6L405.5,42.8L413.4,38.6L421.4,34.3L429.5,30.5L438.0,27.6L446.9,25.9L455.9,25.5L464.8,25.9L473.8,27.0L482.7,28.3L491.6,29.4L500.6,30.4L509.5,31.0L518.5,31.3L527.5,31.0L536.4,29.7L543.9,24.8L540.0,16.7L543.3,8.3L539.5,0.2L544.0,-7.6L539.4,-15.4" fill="none" stroke="rgba(255,255,255,1)" stroke-opacity="0.08" stroke-width="0.7"/><path d="M1081.1,25.5L1090.1,26.5L1099.0,27.5L1107.9,28.8L1116.8,30.4L1125.5,32.6L1134.0,35.6L1142.2,39.4L1149.7,44.4L1156.2,50.6L1161.1,58.1L1164.1,66.6L1165.0,75.6L1164.5,84.5L1163.1,93.4L1161.5,102.3L1160.6,111.3L1161.0,120.3L1163.1,129.0L1166.7,137.2L1171.7,144.7L1177.7,151.4L1184.6,157.3L1192.0,162.3L1200.0,166.5L1208.2,170.3L1216.5,173.6" fill="none" stroke="rgba(255,255,255,1)" stroke-opacity="0.06" stroke-width="0.7"/><path d="M622.7,492.5L630.5,497.0L637.9,502.1L644.5,508.3L649.0,516.0L650.7,524.9L650.1,533.9L648.3,542.7L645.5,551.2L641.9,559.5L637.5,567.4L632.6,574.9" fill="none" stroke="rgba(255,255,255,1)" stroke-opacity="0.06" stroke-width="0.7"/><path d="M109.6,357.4L104.8,365.0L99.5,372.3L93.8,379.3L88.0,386.2L82.1,393.0L76.2,399.7L70.0,406.3L63.2,412.2L54.2,412.7L51.1,404.3L48.2,395.7L45.8,387.1L43.7,378.3L42.0,369.5L40.7,360.6L39.4,351.7L38.1,342.8L36.5,333.9L34.4,325.2L31.7,316.6L28.4,308.2L24.4,300.1L19.7,292.4L14.6,285.0L9.2,277.8L3.8,270.7L-1.6,263.4L-6.5,255.9L-10.6,247.9L-13.1,239.2L-12.5,230.2L-7.8,222.6L-0.7,217.0L7.3,212.8L15.6,209.5L24.2,206.6L32.7,203.9L41.3,201.1L49.8,198.2L58.2,195.0L66.5,191.5L74.6,187.5L82.4,183.0L90.0,178.2L97.3,172.9L104.2,167.1L110.6,160.8L116.1,153.7L120.2,145.7L121.6,136.8L119.2,128.2L113.7,121.0L107.0,115.1L99.6,109.9L91.9,105.1L84.2,100.6L76.4,96.0L68.7,91.4L61.1,86.5L53.8,81.4L46.7,75.8L39.9,69.9L33.5,63.5L27.7,56.7" fill="none" stroke="rgba(255,255,255,1)" stroke-opacity="0.06" stroke-width="0.7"/><path d="M226.2,485.8L224.8,477.0L224.1,468.0L223.8,459.0L223.5,450.0L223.3,441.0L223.2,432.0L223.2,423.0L223.5,414.0L223.9,405.0L224.5,396.0L225.3,387.1L226.2,378.1L227.2,369.2L228.2,360.2L228.8,351.3L228.6,342.3L227.0,333.4L223.8,325.0L218.9,317.4L212.8,310.8L205.7,305.3L198.0,300.6L189.8,296.9L181.1,294.7L173.7,299.9L176.6,308.5L173.4,316.9L170.9,325.6L167.0,333.7L162.5,341.5L157.5,348.9L152.2,356.2L146.6,363.2L140.9,370.2L135.3,377.2L129.8,384.4L124.6,391.8L119.9,399.4L115.9,407.5L112.8,415.9L110.9,424.7L110.4,433.7L111.2,442.7L113.0,451.5L115.7,460.1L118.7,468.6L121.8,477.0L124.8,485.5L127.5,494.1L129.8,502.8L131.6,511.6L132.7,520.5L133.2,529.5L133.1,538.5L132.4,547.5L131.5,556.5L130.3,565.4L129.3,574.3" fill="none" stroke="rgba(255,255,255,1)" stroke-opacity="0.04" stroke-width="0.7"/><path d="M1064.9,218.6L1071.8,224.4L1078.7,230.1L1085.7,235.8L1092.9,241.2L1100.2,246.5L1107.6,251.6L1115.0,256.7L1122.5,261.8L1129.8,266.9L1137.1,272.2L1144.3,277.6L1151.3,283.2L1158.2,289.0L1165.0,294.9L1171.8,300.8L1178.6,306.8L1185.4,312.6L1192.3,318.4L1199.6,323.7L1208.1,326.5L1215.4,321.2" fill="none" stroke="rgba(255,255,255,1)" stroke-opacity="0.09" stroke-width="0.7"/><path d="M33.3,479.8L33.7,470.8L33.5,461.8L33.3,452.9L33.1,443.9L32.9,434.9L32.7,425.9L32.5,416.9L32.4,407.9L32.3,398.9L32.3,389.9L32.3,380.9L32.3,371.9L32.3,362.9L32.2,353.9L31.7,344.9L30.7,335.9L29.0,327.1L26.5,318.4L23.3,310.0L19.3,302.0L14.7,294.2L9.6,286.8L4.2,279.6L-1.3,272.5L-6.8,265.3L-11.8,257.9L-16.2,250.0L-19.2,241.6L-19.6,232.6L-15.9,224.3L-9.2,218.3L-1.4,213.8L6.9,210.3L15.4,207.4L24.0,204.7L32.6,202.2L41.2,199.6L49.8,196.7L58.2,193.6L66.5,190.0L74.5,186.0L82.3,181.5L89.9,176.7L97.2,171.3L104.0,165.5L110.2,159.0L115.5,151.7L119.0,143.4L119.5,134.4L116.1,126.1L110.2,119.3L103.2,113.6L95.7,108.6L88.1,103.9L80.3,99.3L72.6,94.7L64.9,89.9L57.5,84.9L50.2,79.6L43.2,74.0L36.6,67.9L30.4,61.3L24.7,54.4L19.5,47.0" fill="none" stroke="rgba(255,255,255,1)" stroke-opacity="0.05" stroke-width="0.7"/><path d="M819.8,378.0L824.3,370.2L829.0,362.5L833.9,355.0L839.2,347.7L844.6,340.5L850.3,333.6L856.3,326.8L862.4,320.2L868.9,314.0L875.8,308.2L883.3,303.2L891.2,298.9L899.6,295.8L908.4,293.8L917.4,293.1L926.4,293.5L935.3,294.9L944.1,296.9L952.7,299.5L961.3,302.2L969.8,305.0L978.4,307.6L987.1,310.2L995.7,312.6L1004.4,314.9L1013.2,317.1L1021.9,319.2L1030.7,321.2L1039.5,323.1L1048.3,324.9L1057.1,326.7L1066.0,328.4L1074.8,330.0L1083.7,331.5L1092.6,332.8L1101.5,334.0L1110.5,334.9L1119.5,335.5L1128.4,335.7L1137.4,335.3L1146.4,334.1L1155.1,332.1L1163.8,329.6L1172.5,327.3L1181.4,326.0L1190.4,325.4L1199.4,325.1L1208.4,325.2L1217.4,325.0" fill="none" stroke="rgba(255,255,255,1)" stroke-opacity="0.05" stroke-width="0.7"/><path d="M876.5,154.9L874.8,163.7L874.3,172.7L874.7,181.7L875.6,190.7L876.8,199.6L878.6,208.4L881.6,216.9L886.5,224.4L893.4,230.2L901.4,234.3L909.9,237.4L918.5,240.1L927.1,242.7L935.7,245.3L944.3,248.0L952.8,250.9L961.3,253.9L969.8,256.9L978.2,260.0L986.6,263.2L995.0,266.6L1003.3,270.0L1011.5,273.6L1019.7,277.3L1027.9,281.2L1035.9,285.2L1044.0,289.3L1052.0,293.4L1060.0,297.5L1068.0,301.5L1076.2,305.3L1084.4,308.9L1092.8,312.3L1101.2,315.4L1109.7,318.4L1118.3,321.1L1127.0,323.5L1135.7,325.7L1144.5,327.4L1153.5,328.5L1162.5,328.6L1171.4,327.6L1180.3,326.1L1189.3,325.5L1198.3,325.1L1207.3,325.2L1216.3,325.0" fill="none" stroke="rgba(255,255,255,1)" stroke-opacity="0.04" stroke-width="0.7"/><path d="M670.2,209.9L679.0,207.8L687.6,205.1L696.0,202.0L704.3,198.6L712.6,195.1L720.9,191.6L729.2,188.1L737.6,184.8L746.1,181.8L754.7,179.4L763.6,177.9L772.6,178.2L781.2,181.0L788.0,186.8L793.0,194.3L796.8,202.5L800.0,210.9L803.4,219.2L807.8,227.1L814.2,233.4L822.5,237.0L831.3,238.8L840.2,239.8L849.2,240.4L858.2,240.8L867.2,241.2L876.2,241.8L885.1,242.7L894.1,243.7L903.0,245.0L911.8,246.6L920.6,248.4L929.4,250.5L938.1,252.9L946.7,255.6L955.2,258.5L963.6,261.6L972.1,264.7L980.5,267.9L988.9,271.2L997.2,274.5L1005.5,278.0L1013.8,281.6L1021.9,285.4L1030.1,289.3L1038.2,293.2L1046.3,297.1L1054.4,301.0L1062.5,304.8L1070.8,308.4L1079.1,311.8L1087.6,314.9L1096.1,317.8L1104.7,320.5L1113.3,322.9L1122.1,325.1L1130.9,327.0L1139.7,328.5L1148.7,329.4L1157.7,329.4L1166.7,328.4L1175.5,326.8L1184.4,325.7L1193.4,325.3" fill="none" stroke="rgba(255,255,255,1)" stroke-opacity="0.08" stroke-width="0.7"/><path d="M559.3,414.8L568.2,415.5L577.2,416.4L586.1,417.6L595.0,419.0L603.9,420.6L612.7,422.3L621.6,423.8L630.5,425.2L639.4,425.9L648.4,425.5L657.0,422.8L663.4,416.4L665.6,407.7L665.6,398.7L664.7,389.7L663.7,380.8L663.0,371.8L662.7,362.8L661.8,353.9L659.3,345.2L654.4,337.7L645.4,337.4L652.4,343.0L659.5,337.4L650.9,334.8L647.2,343.0L656.2,343.6L653.3,335.1L645.3,339.2L653.4,343.2L658.1,335.5L649.2,334.5L649.1,343.5L658.1,342.6L652.0,336.0L646.1,342.8L655.1,343.9L655.2,334.9L646.3,336.4L652.2,343.2L659.6,338.1L651.2,335.0L646.9,342.9L655.9,343.7L653.7,335.0L645.4,338.5L653.1,343.1L658.6,336.0L649.7,334.5L648.5,343.4L657.5,343.1L652.2,335.8L645.8,342.1L654.6,343.8L655.9,334.9L646.9,335.7L651.7,343.3L659.7,339.2L651.6,335.4L646.6,342.9L655.5,343.8L654.3,334.9L645.7,337.5L652.8,343.1" fill="none" stroke="rgba(255,255,255,1)" stroke-opacity="0.07" stroke-width="0.7"/><path d="M697.9,83.7L700.7,75.2L703.6,66.7L707.0,58.3L710.9,50.2L715.6,42.6L721.0,35.3L727.0,28.7L733.5,22.4L740.4,16.6L747.5,11.2L755.0,6.1L762.7,1.5L770.9,-2.4L779.6,-4.5L786.1,1.7L784.2,10.5L782.8,19.4L779.2,27.6L777.1,18.9L785.8,16.7L781.5,24.6L773.1,27.9L778.2,20.5L787.0,18.5L781.7,25.8L772.8,27.4L778.2,20.2L787.1,18.6L781.7,25.8L772.9,27.5L778.2,20.3L787.1,18.6L781.7,25.8L772.9,27.5L778.2,20.2L787.1,18.6L781.7,25.8L772.9,27.5L778.2,20.2L787.1,18.6L781.7,25.8L772.9,27.5L778.2,20.2L787.1,18.6L781.7,25.8L772.9,27.5L778.2,20.2L787.1,18.6L781.7,25.8L772.9,27.5L778.2,20.2L787.1,18.6L781.7,25.8L772.9,27.5L778.2,20.2L787.1,18.6L781.7,25.8L772.9,27.5L778.2,20.2L787.1,18.6L781.7,25.8L772.9,27.5L778.2,20.2L787.1,18.6" fill="none" stroke="rgba(255,255,255,1)" stroke-opacity="0.05" stroke-width="0.7"/><path d="M1140.0,499.3L1142.9,507.8L1142.7,516.8L1136.9,523.6L1127.9,524.8L1119.3,522.4L1111.6,517.6L1106.7,510.1L1114.5,514.6L1115.6,523.5L1109.0,517.4L1105.9,508.9L1113.5,513.7L1118.9,520.9L1111.1,516.5L1107.5,508.2L1114.7,513.6L1118.6,521.7L1111.0,516.9L1107.0,508.8L1114.4,513.9L1118.2,522.1L1110.8,517.0L1106.8,508.9L1114.3,513.9L1118.3,522.0L1110.8,517.0L1106.9,508.9L1114.3,513.9L1118.3,522.0L1110.8,516.9L1106.9,508.9L1114.3,513.9L1118.3,522.0L1110.8,516.9L1106.9,508.9L1114.3,513.9L1118.3,522.0L1110.8,516.9L1106.9,508.9L1114.3,513.9L1118.3,522.0L1110.8,516.9L1106.9,508.9L1114.3,513.9L1118.3,522.0L1110.8,516.9L1106.9,508.9L1114.3,513.9L1118.3,522.0L1110.8,516.9L1106.9,508.9L1114.3,513.9L1118.3,522.0L1110.8,516.9L1106.9,508.9L1114.3,513.9L1118.3,522.0L1110.8,516.9L1106.9,508.9L1114.3,513.9L1118.3,522.0L1110.8,516.9L1106.9,508.9L1114.3,513.9" fill="none" stroke="rgba(255,255,255,1)" stroke-opacity="0.09" stroke-width="0.7"/><path d="M1133.8,447.5L1139.4,454.5L1144.4,462.0L1149.1,469.7L1153.5,477.5L1157.6,485.6L1160.8,493.9L1162.9,502.7L1162.7,511.7L1159.3,520.0L1152.7,526.2L1144.3,529.4L1135.3,529.9L1126.5,528.1L1118.4,524.2L1111.2,518.8L1106.1,511.4L1114.5,514.6L1115.6,523.5L1109.0,517.4L1105.9,508.9L1113.5,513.7L1118.9,520.9L1111.1,516.5L1107.5,508.2L1114.7,513.6L1118.6,521.7L1111.0,516.9L1107.0,508.8L1114.4,513.9L1118.2,522.1L1110.8,517.0L1106.8,508.9L1114.3,513.9L1118.3,522.0L1110.8,517.0L1106.9,508.9L1114.3,513.9L1118.3,522.0L1110.8,516.9L1106.9,508.9L1114.3,513.9L1118.3,522.0L1110.8,516.9L1106.9,508.9L1114.3,513.9L1118.3,522.0L1110.8,516.9L1106.9,508.9L1114.3,513.9L1118.3,522.0L1110.8,516.9L1106.9,508.9L1114.3,513.9L1118.3,522.0L1110.8,516.9L1106.9,508.9L1114.3,513.9L1118.3,522.0L1110.8,516.9L1106.9,508.9L1114.3,513.9L1118.3,522.0L1110.8,516.9L1106.9,508.9" fill="none" stroke="#da77f2" stroke-opacity="0.50" stroke-width="1.1"/><path d="M771.0,125.4L769.8,116.5L767.6,107.8L765.1,99.1L762.9,90.4L761.0,81.6L759.7,72.7L759.3,63.7L759.8,54.7L761.4,45.9L764.3,37.3L768.4,29.4L773.9,22.2L781.1,16.8L783.3,25.5L775.3,29.5L778.6,21.2L787.4,19.2L781.8,26.2L772.9,27.5L778.2,20.3L787.1,18.6L781.7,25.9L772.9,27.5L778.2,20.2L787.1,18.6L781.7,25.8L772.9,27.5L778.2,20.2L787.1,18.6L781.7,25.8L772.9,27.5L778.2,20.2L787.1,18.6L781.7,25.8L772.9,27.5L778.2,20.2L787.1,18.6L781.7,25.8L772.9,27.5L778.2,20.2L787.1,18.6L781.7,25.8L772.9,27.5L778.2,20.2L787.1,18.6L781.7,25.8L772.9,27.5L778.2,20.2L787.1,18.6L781.7,25.8L772.9,27.5L778.2,20.2L787.1,18.6L781.7,25.8L772.9,27.5L778.2,20.2L787.1,18.6L781.7,25.8L772.9,27.5L778.2,20.2L787.1,18.6L781.7,25.8L772.9,27.5L778.2,20.2" fill="none" stroke="rgba(255,255,255,1)" stroke-opacity="0.09" stroke-width="0.7"/><path d="M1008.6,298.9L1017.0,302.3L1025.3,305.6L1033.7,308.9L1042.2,312.0L1050.7,315.0L1059.2,317.7L1067.8,320.3L1076.5,322.7L1085.3,324.9L1094.0,326.8L1102.9,328.6L1111.7,330.1L1120.6,331.4L1129.6,332.3L1138.6,332.6L1147.6,332.2L1156.5,331.0L1165.3,329.0L1174.1,327.0L1183.0,325.9L1192.0,325.3L1201.0,325.1L1210.0,325.2L1219.0,324.9" fill="none" stroke="rgba(255,255,255,1)" stroke-opacity="0.06" stroke-width="0.7"/><path d="M12.4,183.0L21.2,181.5L30.1,179.7L38.8,177.6L47.4,174.9L55.8,171.6L63.8,167.6L71.5,162.8L78.5,157.2L84.4,150.4L88.3,142.3L88.9,133.3L85.4,125.0L79.6,118.1L72.9,112.1L65.8,106.6L58.5,101.3L51.2,96.0L44.0,90.6L36.9,85.1L30.1,79.2L23.5,73.1L17.2,66.7L11.2,59.9L5.7,52.9L0.5,45.5L-4.2,37.8L-8.4,29.9L-12.2,21.7L-15.5,13.3L-18.4,4.8" fill="none" stroke="rgba(255,255,255,1)" stroke-opacity="0.07" stroke-width="0.7"/><path d="M230.2,373.1L231.3,364.2L232.2,355.3L232.4,346.3L231.5,337.3L229.1,328.6L225.0,320.6L219.4,313.6L212.7,307.5L205.4,302.4L197.5,298.0L189.2,294.6L180.3,292.9L174.3,299.5L176.8,308.2L173.3,316.5L171.1,325.2L167.2,333.4L162.7,341.2L157.7,348.6L152.4,355.9L146.8,363.0L141.1,370.0L135.5,377.0L130.0,384.1L124.8,391.5L120.1,399.1L116.1,407.2L112.9,415.6L111.0,424.4L110.4,433.4L111.1,442.3L113.0,451.1L115.5,459.8L118.6,468.2L121.7,476.7L124.7,485.2L127.4,493.8L129.7,502.4L131.5,511.3L132.7,520.2L133.2,529.2L133.1,538.2L132.5,547.2L131.5,556.1L130.4,565.0L129.3,574.0" fill="none" stroke="rgba(255,255,255,1)" stroke-opacity="0.05" stroke-width="0.7"/><path d="M755.0,53.0L757.6,44.4L761.4,36.2L766.1,28.6L772.0,21.7L779.2,16.4L787.1,20.7L781.1,27.4L772.5,24.7L778.9,18.4L787.6,20.6L781.6,27.3L772.6,26.5L778.4,19.6L787.4,19.0L781.8,26.1L772.9,27.5L778.2,20.3L787.1,18.6L781.7,25.9L772.9,27.5L778.2,20.2L787.1,18.6L781.7,25.8L772.9,27.5L778.2,20.2L787.1,18.6L781.7,25.8L772.9,27.5L778.2,20.2L787.1,18.6L781.7,25.8L772.9,27.5L778.2,20.2L787.1,18.6L781.7,25.8L772.9,27.5L778.2,20.2L787.1,18.6L781.7,25.8L772.9,27.5L778.2,20.2L787.1,18.6L781.7,25.8L772.9,27.5L778.2,20.2L787.1,18.6L781.7,25.8L772.9,27.5L778.2,20.2L787.1,18.6L781.7,25.8L772.9,27.5L778.2,20.2L787.1,18.6L781.7,25.8L772.9,27.5L778.2,20.2L787.1,18.6L781.7,25.8L772.9,27.5L778.2,20.2L787.1,18.6L781.7,25.8L772.9,27.5" fill="none" stroke="rgba(255,255,255,1)" stroke-opacity="0.05" stroke-width="0.7"/><path d="M702.2,245.0L695.2,239.3L690.5,231.7L693.9,223.4L700.7,217.5L708.1,212.4L715.8,207.7L723.7,203.5L731.8,199.5L740.1,196.0L748.6,193.0L757.3,190.8L766.3,189.9L775.2,191.1L783.3,195.0L789.7,201.3L794.6,208.8L798.9,216.8L803.5,224.5L809.4,231.3L817.2,235.7L825.9,238.0L834.8,239.4L843.8,240.1L852.8,240.6L861.8,240.9L870.8,241.4L879.7,242.1L888.7,243.1L897.6,244.2L906.5,245.6L915.3,247.3L924.1,249.2L932.9,251.5L941.5,254.0L950.1,256.8L958.6,259.7L967.0,262.8L975.4,266.0L983.8,269.2L992.2,272.5L1000.5,275.9L1008.8,279.4L1017.0,283.1L1025.2,286.9L1033.3,290.8L1041.4,294.8L1049.5,298.7L1057.6,302.6L1065.8,306.3L1074.1,309.8L1082.5,313.1L1090.9,316.1L1099.5,318.9L1108.1,321.5L1116.8,323.8L1125.6,325.9L1134.4,327.7L1143.3,328.9L1152.3,329.5L1161.3,329.1L1170.2,327.8L1179.1,326.3L1188.0,325.5L1197.0,325.1" fill="none" stroke="rgba(255,255,255,1)" stroke-opacity="0.04" stroke-width="0.7"/><path d="M763.4,117.0L762.9,108.1L761.6,99.2L760.1,90.3L758.7,81.4L757.9,72.4L757.8,63.4L758.6,54.5L760.5,45.7L763.6,37.2L767.9,29.3L773.4,22.2L780.6,16.8L784.6,24.8L777.1,29.8L778.3,20.9L787.0,18.7L781.7,25.9L772.8,27.4L778.2,20.2L787.1,18.6L781.7,25.8L772.9,27.5L778.2,20.3L787.1,18.6L781.7,25.8L772.9,27.5L778.2,20.2L787.1,18.6L781.7,25.8L772.9,27.5L778.2,20.2L787.1,18.6L781.7,25.8L772.9,27.5L778.2,20.2L787.1,18.6L781.7,25.8L772.9,27.5L778.2,20.2L787.1,18.6L781.7,25.8L772.9,27.5L778.2,20.2L787.1,18.6L781.7,25.8L772.9,27.5L778.2,20.2L787.1,18.6L781.7,25.8L772.9,27.5L778.2,20.2L787.1,18.6L781.7,25.8L772.9,27.5L778.2,20.2L787.1,18.6L781.7,25.8L772.9,27.5L778.2,20.2L787.1,18.6L781.7,25.8L772.9,27.5L778.2,20.2L787.1,18.6" fill="none" stroke="rgba(255,255,255,1)" stroke-opacity="0.08" stroke-width="0.7"/><path d="M115.1,332.0L115.0,341.0L112.6,349.7L108.7,357.8L103.8,365.4L98.5,372.6L92.8,379.6L86.9,386.4L81.0,393.2L74.9,399.8L68.6,406.2L61.2,411.4L52.8,408.1L49.7,399.7L47.0,391.1L44.7,382.4L42.8,373.6L41.3,364.7L40.0,355.8L38.8,346.9L37.3,338.0L35.5,329.2L33.1,320.5L30.1,312.1L26.4,303.9L22.0,296.0L17.1,288.4L11.8,281.2L6.4,274.0L0.9,266.8L-4.2,259.5L-8.8,251.7L-12.2,243.3L-13.2,234.4L-10.4,225.9L-4.1,219.4L3.5,214.7L11.7,211.0L20.2,207.9L28.8,205.1L37.3,202.4L45.9,199.6L54.4,196.6L62.7,193.2L70.9,189.4L78.8,185.1L86.5,180.5L93.9,175.4L101.0,169.9L107.7,163.8L113.7,157.1L118.6,149.5L121.4,141.0L120.8,132.0L116.5,124.1L110.2,117.7L103.1,112.2L95.5,107.3L87.8,102.7L80.0,98.2L72.3,93.6L64.6,88.8L57.2,83.8L49.9,78.5L43.0,72.7" fill="none" stroke="rgba(255,255,255,1)" stroke-opacity="0.12" stroke-width="0.7"/><path d="M263.3,487.2L260.9,478.6L259.4,469.7L258.2,460.8L257.2,451.8L256.4,442.9L255.7,433.9L255.3,424.9L255.2,415.9L255.4,406.9L255.8,397.9L256.4,388.9L257.1,379.9L257.9,371.0L258.7,362.0L259.1,353.0L258.7,344.0L257.2,335.2L254.1,326.7L249.6,318.9L243.7,312.1L237.0,306.1L229.7,300.9L222.0,296.2L214.0,292.1L205.8,288.3L197.4,285.0L188.8,282.4L179.9,281.4L175.8,289.4L178.4,298.0L175.2,306.5L174.8,315.5L171.4,323.8L167.8,332.1L163.5,339.9L158.5,347.5L153.2,354.7L147.7,361.8L142.1,368.8L136.4,375.8L130.9,382.9L125.6,390.3L120.8,397.9L116.7,405.8L113.4,414.2L111.2,423.0L110.4,431.9L110.9,440.9L112.6,449.7L115.1,458.4L118.0,466.9L121.2,475.3L124.2,483.8L127.0,492.4L129.4,501.0L131.3,509.8L132.6,518.7L133.2,527.7L133.1,536.7L132.6,545.7L131.7,554.7L130.6,563.6L129.5,572.5" fill="none" stroke="rgba(255,255,255,1)" stroke-opacity="0.09" stroke-width="0.7"/><path d="M1099.0,242.6L1106.4,247.8L1113.7,253.0L1121.2,258.1L1128.6,263.2L1135.9,268.4L1143.1,273.8L1150.1,279.4L1157.0,285.2L1163.8,291.1L1170.6,297.1L1177.3,303.1L1184.0,309.1L1190.8,315.0L1197.7,320.7L1205.3,325.5L1214.3,324.3" fill="none" stroke="rgba(255,255,255,1)" stroke-opacity="0.08" stroke-width="0.7"/><path d="M344.7,75.2L353.5,77.2L362.3,79.0L371.1,80.9L379.8,82.9L388.7,84.7L397.5,86.2L406.5,86.9L415.4,85.8L422.9,80.7L426.0,72.3L428.8,63.7L432.7,55.6L438.0,48.3L444.7,42.3L452.6,38.0L461.2,35.5L470.1,34.3L479.1,34.0L488.1,34.0L497.1,33.9L506.1,33.8L515.1,33.5L524.1,32.9L533.0,31.7L541.5,28.5L541.8,19.5L540.9,10.6L541.9,1.6L540.4,-7.2L542.6,-16.0" fill="none" stroke="rgba(255,255,255,1)" stroke-opacity="0.06" stroke-width="0.7"/><path d="M1101.4,281.0L1109.1,285.6L1116.7,290.4L1124.3,295.2L1131.9,300.1L1139.5,304.9L1147.2,309.6L1154.9,314.2L1162.8,318.6L1170.9,322.6L1179.3,325.6L1188.3,326.0L1197.2,324.3L1206.0,326.2L1214.1,322.3" fill="none" stroke="rgba(255,255,255,1)" stroke-opacity="0.05" stroke-width="0.7"/><path d="M262.3,388.0L262.8,379.0L263.4,370.0L263.9,361.0L264.0,352.0L263.3,343.1L261.4,334.3L258.0,325.9L253.2,318.3L247.3,311.5L240.5,305.6L233.1,300.5L225.4,295.8L217.4,291.7L209.3,287.9L200.9,284.5L192.4,281.6L183.6,279.7L175.0,282.3L178.7,290.5L176.4,299.2L176.5,308.2L173.5,316.7L171.0,325.3L167.2,333.5L162.7,341.3L157.7,348.7L152.3,356.0L146.7,363.0L141.1,370.0L135.4,377.0L129.9,384.2L124.8,391.5L120.1,399.2L116.0,407.3L112.9,415.7L111.0,424.5L110.4,433.5L111.1,442.4L113.0,451.3L115.6,459.9L118.6,468.4L121.7,476.8L124.7,485.3L127.4,493.9L129.7,502.6L131.5,511.4L132.7,520.3L133.2,529.3L133.1,538.3L132.5,547.3L131.5,556.2L130.4,565.1L129.3,574.1" fill="none" stroke="rgba(255,255,255,1)" stroke-opacity="0.08" stroke-width="0.7"/><path d="M231.1,160.6L235.9,168.3L241.4,175.3L247.4,182.1L253.6,188.6L259.6,195.3L265.3,202.2L270.4,209.6L274.5,217.7L276.5,226.4L273.8,235.0L265.9,239.4L257.1,241.1L248.1,241.8L239.1,242.0L230.1,242.1L221.1,242.3L212.1,242.6L203.1,243.3L194.3,245.1L190.4,253.2L181.5,254.3L188.3,260.1L179.3,260.5L184.5,267.9L175.9,270.5L180.0,278.5L175.7,286.4L178.6,294.8L175.7,303.3L175.7,312.3L172.3,320.7L169.3,329.2L165.1,337.1L160.4,344.8L155.2,352.2L149.7,359.3L144.1,366.3L138.4,373.3L132.8,380.4L127.5,387.6L122.5,395.1L118.1,402.9L114.4,411.2L111.8,419.8L110.5,428.7L110.6,437.7L111.9,446.6L114.1,455.3L116.9,463.9L120.0,472.3L123.1,480.8L126.0,489.3L128.6,497.9L130.7,506.7L132.2,515.5L133.0,524.5L133.2,533.5L132.9,542.5L132.0,551.5L131.0,560.4L129.9,569.3L128.8,578.3" fill="none" stroke="rgba(255,255,255,1)" stroke-opacity="0.07" stroke-width="0.7"/><path d="M488.2,380.6L497.1,381.4L506.1,382.1L515.1,382.8L524.1,383.4L533.0,383.9L542.0,384.4L551.0,384.8L560.0,385.2L569.0,385.5L578.0,385.8L587.0,386.0L596.0,386.3L605.0,386.5L614.0,386.7L623.0,386.7L632.0,386.4L640.9,385.5L649.7,383.4L657.5,379.0L661.8,371.1L662.5,362.1L661.6,353.1L659.0,344.5L653.8,337.2L644.9,338.7L652.8,343.1L659.1,336.7L650.4,334.6L647.7,343.2L656.7,343.4L652.7,335.4L645.4,340.6L653.9,343.5L657.1,335.0L648.1,334.9L650.4,343.6L659.2,341.4L651.9,336.1L646.4,343.2L655.3,344.0L654.8,335.0L646.0,336.9L652.5,343.1L659.5,337.5L650.9,334.8L647.2,343.0L656.2,343.6L653.2,335.1L645.3,339.4L653.4,343.2L658.0,335.5L649.1,334.5L649.3,343.5L658.2,342.6L652.0,336.0L646.2,342.9L655.1,344.0L655.2,335.0L646.3,336.5L652.3,343.2L659.6,338.0L651.1,335.0L647.0,343.0L656.0,343.7" fill="none" stroke="rgba(255,255,255,1)" stroke-opacity="0.11" stroke-width="0.7"/><path d="M113.4,260.5L121.4,264.6L129.2,269.1L136.9,273.9L144.3,278.9L151.6,284.1L158.8,289.6L165.6,295.5L171.6,302.2L175.2,310.5L173.3,319.2L169.9,327.6L165.9,335.7L161.3,343.4L156.2,350.8L150.8,358.0L145.2,365.0L139.5,372.0L133.9,379.0L128.5,386.2L123.4,393.7L118.9,401.4L115.0,409.6L112.2,418.1L110.7,427.0L110.5,436.0L111.6,444.9L113.6,453.7L116.4,462.3L119.5,470.7L122.6,479.2L125.5,487.7L128.1,496.3L130.3,505.0L131.9,513.9L132.9,522.8L133.2,531.8L133.0,540.8L132.2,549.8L131.2,558.7L130.1,567.6L129.0,576.6" fill="none" stroke="rgba(255,255,255,1)" stroke-opacity="0.09" stroke-width="0.7"/><path d="M392.9,458.3L384.6,454.7L376.1,451.7L367.6,449.0L358.9,446.4L350.4,443.7L341.9,440.6L333.7,437.0L325.8,432.5L318.6,427.1L312.3,420.8L307.0,413.5L302.6,405.6L299.2,397.3L296.5,388.7L294.4,380.0L292.6,371.1L291.0,362.3L289.3,353.5L287.0,344.7L283.9,336.3L279.8,328.3L274.7,320.8L268.7,314.1L262.0,308.1L254.8,302.8L247.2,298.0L239.4,293.6L231.3,289.5L223.2,285.7L214.9,282.1L206.6,278.7L198.1,275.6L189.5,273.0L180.6,271.9L176.2,279.7L178.8,288.3L176.6,297.1L177.0,306.1L174.0,314.6L171.9,323.3L168.2,331.5L163.8,339.4L158.9,346.9L153.6,354.2L148.1,361.3L142.5,368.3L136.8,375.3L131.3,382.4L126.0,389.7L121.2,397.3L116.9,405.3L113.6,413.6L111.3,422.3L110.4,431.3L110.8,440.3L112.4,449.1L114.9,457.8L117.8,466.3L120.9,474.7L124.0,483.2L126.8,491.8L129.2,500.4L131.2,509.2L132.5,518.1" fill="none" stroke="rgba(255,255,255,1)" stroke-opacity="0.10" stroke-width="0.7"/><path d="M366.0,205.1L360.7,212.3L354.7,219.0L347.8,224.8L340.3,229.8L332.3,233.8L323.8,236.9L315.1,239.3L306.3,241.0L297.4,242.2L288.4,242.9L279.4,243.3L270.4,243.4L261.4,243.3L252.4,243.1L243.4,242.8L234.4,242.6L225.4,242.5L216.4,242.5L207.4,242.9L198.5,244.0L190.3,247.8L192.2,256.6L183.3,255.6L187.6,263.5L178.6,263.8L182.7,271.8L174.9,276.4L178.9,284.4L176.9,293.2L177.6,302.2L174.8,310.7L173.3,319.6L169.8,327.9L165.8,336.0L161.1,343.7L156.0,351.0L150.6,358.2L144.9,365.3L139.3,372.2L133.7,379.3L128.3,386.5L123.2,393.9L118.7,401.7L114.9,409.9L112.2,418.5L110.6,427.3L110.5,436.3L111.6,445.3L113.7,454.0L116.5,462.6L119.6,471.0L122.7,479.5L125.6,488.0L128.2,496.6L130.4,505.3L132.0,514.2L132.9,523.1L133.2,532.1L132.9,541.1L132.2,550.1L131.1,559.0L130.0,568.0L128.9,576.9" fill="none" stroke="rgba(255,255,255,1)" stroke-opacity="0.04" stroke-width="0.7"/><path d="M518.4,79.1L512.0,72.7L505.9,66.1L500.4,59.0L496.0,51.1L495.7,42.1L503.6,37.8L512.5,36.1L521.4,34.8L530.2,33.3L538.9,30.7L544.0,23.3L539.9,15.3L543.5,7.1L539.5,-1.0L544.1,-8.8L539.4,-16.5" fill="none" stroke="rgba(255,255,255,1)" stroke-opacity="0.08" stroke-width="0.7"/></svg>