<svg xmlns="http://www.w3.org/2000/svg" viewBox="0 0 225 249"><path d="M24.885,204.567c-6.544,-51.691 -8.093,-104.076 -0.797,-157.691c0.952,-6.791 4.934,-12.784 10.827,-16.291c5.893,-3.507 13.059,-4.151 19.483,-1.749c49.046,18.271 95.629,48.988 140.129,87.586l-6.344,-15.935l18.115,27.518c4.459,7.655 4.933,17.466 1.687,26.064c-4.412,11.688 -15.612,19.412 -28.105,19.383c-17.475,-0.026 -34.588,-0.067 -46.945,-0.097c-11.554,-0.028 -22.284,5.98 -28.299,15.844l-23.223,38.08c-6.568,10.77 -19.199,16.245 -31.549,13.674c-8.698,-1.81 -15.931,-7.336 -20.052,-14.81l-13.648,-27.891l8.721,6.315Z" style="fill:#f5f5f7;"/><path d="M16.314,191.29c-5.163,-47.693 -5.841,-96.008 0.874,-145.353l0.004,-0.028c1.245,-8.883 6.454,-16.721 14.162,-21.309c7.708,-4.588 17.081,-5.429 25.475,-2.291c43.605,16.244 85.315,42.143 125.35,74.65c0.642,-1.094 1.587,-2.023 2.786,-2.647c3.168,-1.651 7.071,-0.638 9.035,2.346l18.115,27.518c0.07,0.106 0.137,0.214 0.201,0.324c5.481,9.409 6.174,21.461 2.185,32.029c-5.437,14.404 -19.24,23.924 -34.631,23.887c-17.477,-0.026 -34.593,-0.067 -46.952,-0.097c-9.12,-0.022 -17.589,4.72 -22.337,12.506l-23.223,38.08c-8.101,13.284 -23.681,20.037 -38.914,16.866c-10.727,-2.233 -19.649,-9.047 -24.731,-18.266c-0.055,-0.099 -0.107,-0.199 -0.157,-0.301l-13.648,-27.891c-1.405,-2.871 -0.675,-6.33 1.771,-8.389c1.332,-1.121 2.985,-1.669 4.634,-1.634Zm178.6,-67.915c-1.76,0.097 -3.543,-0.473 -4.949,-1.693c-43.833,-38.02 -89.687,-68.324 -137.997,-86.321l-0.008,-0.003c-4.445,-1.662 -9.404,-1.217 -13.482,1.211c-4.075,2.425 -6.83,6.568 -7.491,11.263c-7.209,52.992 -5.66,104.769 0.808,155.86c0.29,2.293 -0.576,4.547 -2.253,6.054l6.452,13.184c3.172,5.655 8.68,9.83 15.29,11.206c9.467,1.97 19.15,-2.227 24.185,-10.482l23.224,-38.08c7.283,-11.942 20.273,-19.215 34.261,-19.182c12.356,0.029 29.467,0.07 46.939,0.097l0.006,0c9.59,0.023 18.187,-5.906 21.573,-14.878c2.479,-6.569 2.252,-14.063 -1.102,-19.948l-5.456,-8.288Z" style="fill:#f5f5f7;"/><path d="M12.15,28.923c1.001,-7.425 5.338,-13.986 11.778,-17.815c6.439,-3.829 14.275,-4.507 21.277,-1.841c48.09,18.336 93.807,48.611 137.515,86.493c10.327,8.878 14.03,23.249 9.281,36.013c-4.75,12.763 -16.947,21.217 -30.565,21.185c-14.305,-0.023 -27.969,-0.055 -38.51,-0.08c-12.541,-0.03 -24.188,6.491 -30.718,17.198c-5.139,8.426 -11.708,19.197 -18.658,30.594c-7.152,11.728 -20.926,17.667 -34.364,14.818c-13.438,-2.849 -23.616,-13.867 -25.394,-27.488c-6.861,-52.148 -8.728,-104.99 -1.643,-159.076Z" style="fill:#0a0a0c;"/><path d="M4.559,27.899c1.313,-9.742 7.005,-18.351 15.454,-23.376c8.449,-5.024 18.731,-5.914 27.918,-2.415l0.003,0.001c48.876,18.636 95.373,49.355 139.796,87.856c12.746,10.97 17.315,28.717 11.45,44.479c-5.868,15.769 -20.937,26.213 -37.757,26.173c-14.307,-0.023 -27.973,-0.055 -38.516,-0.081c-9.864,-0.024 -19.024,5.105 -24.16,13.526l-18.658,30.594c-8.844,14.502 -25.875,21.847 -42.492,18.323c-16.617,-3.523 -29.203,-17.147 -31.399,-33.982c-6.947,-52.801 -8.818,-106.306 -1.643,-161.07l0.004,-0.028Zm15.184,2.036c-6.994,53.402 -5.13,105.576 1.645,157.064l0.001,0.008c1.357,10.399 9.127,18.811 19.387,20.986c10.259,2.175 20.775,-2.359 26.235,-11.313l18.658,-30.594c7.924,-12.993 22.057,-20.906 37.276,-20.87c10.539,0.025 24.201,0.058 38.504,0.08l0.006,0c10.412,0.025 19.737,-6.438 23.368,-16.196c3.631,-9.758 0.8,-20.745 -7.095,-27.533l-0.023,-0.02c-42.991,-37.26 -87.926,-67.088 -135.225,-85.124c-4.816,-1.834 -10.206,-1.367 -14.635,1.266c-4.426,2.632 -7.409,7.141 -8.1,12.244Z" style="fill:#f5f5f7;"/></svg>