<?xml version="1.0" encoding="UTF-8" standalone="no"?>
<!DOCTYPE svg PUBLIC "-//W3C//DTD SVG 1.1//EN" "http://www.w3.org/Graphics/SVG/1.1/DTD/svg11.dtd">
<svg width="100%" height="100%" viewBox="0 0 450 450" version="1.1" xmlns="http://www.w3.org/2000/svg" xmlns:xlink="http://www.w3.org/1999/xlink" xml:space="preserve" xmlns:serif="http://www.serif.com/" style="fill-rule:evenodd;clip-rule:evenodd;stroke-linejoin:round;stroke-miterlimit:2;">
    <g transform="matrix(1,0,0,1,-6784.547994,-12610.317587)">
        <g transform="matrix(1,0,0,1,0,11880)">
            <g transform="matrix(1,0,0,1,-6.74776,-11886.74776)">
                <rect x="6791.296" y="12617.065" width="449.489" height="449.489" style="fill-opacity:0;"/>
            </g>
            <g transform="matrix(1.997504,0,0,1.997504,-5071.531362,-2878.765278)">
                <path d="M6002.052,1954.987C5998.487,1927.779 5997.509,1900.213 6001.206,1871.996L6001.207,1871.981C6001.884,1866.961 6004.817,1862.525 6009.17,1859.937C6013.524,1857.348 6018.821,1856.89 6023.555,1858.692L6023.557,1858.693C6048.74,1868.295 6072.663,1884.163 6095.586,1903.961C6096.597,1904.832 6097.51,1905.785 6098.318,1906.806C6098.502,1906.985 6098.67,1907.186 6098.817,1907.409L6108.15,1921.588C6108.186,1921.642 6108.221,1921.698 6108.254,1921.755C6111.078,1926.602 6111.435,1932.812 6109.38,1938.257C6106.578,1945.679 6099.466,1950.58 6091.536,1950.565C6082.531,1950.548 6073.713,1950.53 6067.345,1950.515C6062.646,1950.504 6058.282,1952.947 6055.835,1956.959L6043.87,1976.58C6039.696,1983.424 6031.668,1986.903 6023.819,1985.27C6018.292,1984.12 6013.695,1980.608 6011.077,1975.858C6011.048,1975.807 6011.022,1975.756 6010.996,1975.703L6004.278,1961.973C6003.145,1959.837 6002.378,1957.48 6002.052,1954.987ZM6094.856,1918.682C6094.663,1916.164 6093.729,1913.733 6092.138,1911.718C6091.634,1911.08 6091.065,1910.483 6090.432,1909.939L6090.42,1909.929C6070.581,1892.734 6049.939,1878.612 6028.337,1869.175C6025.82,1868.075 6023.289,1867.038 6020.745,1866.069C6018.264,1865.123 6015.487,1865.364 6013.205,1866.721C6010.924,1868.078 6009.381,1870.4 6009.031,1873.03C6008.789,1874.851 6008.574,1876.67 6008.375,1878.485C6005.566,1904.103 6006.619,1929.184 6009.878,1953.957L6009.879,1953.961C6010.062,1955.361 6010.47,1956.691 6011.068,1957.913C6012.027,1959.872 6013.475,1961.552 6015.262,1962.789C6016.623,1963.731 6018.18,1964.416 6019.868,1964.774C6025.154,1965.895 6030.572,1963.559 6033.385,1958.945L6042.999,1943.182C6047.082,1936.487 6054.364,1932.41 6062.205,1932.429C6067.636,1932.442 6074.675,1932.459 6082.044,1932.47L6082.047,1932.47C6087.412,1932.483 6092.217,1929.153 6094.088,1924.125C6094.749,1922.349 6094.994,1920.493 6094.856,1918.682Z" style="fill:rgb(242,242,242);"/>
            </g>
        </g>
    </g>
</svg>
